<?xml version="1.0" encoding="UTF-8"?>
<!DOCTYPE svg PUBLIC "-//W3C//DTD SVG 1.1//EN" "http://www.w3.org/Graphics/SVG/1.1/DTD/svg11.dtd">
<!-- Creator: CorelDRAW -->
<svg xmlns="http://www.w3.org/2000/svg" xml:space="preserve" width="700px" height="622px" version="1.1" style="shape-rendering:geometricPrecision; text-rendering:geometricPrecision; image-rendering:optimizeQuality; fill-rule:evenodd; clip-rule:evenodd"
viewBox="0 0 23.33 20.74"
 xmlns:xlink="http://www.w3.org/1999/xlink"
 xmlns:xodm="http://www.corel.com/coreldraw/odm/2003">
 <defs>
  <style type="text/css">
   <![CDATA[
    .fil0 {fill:black}
   ]]>
  </style>
 </defs>
 <g id="Layer_x0020_1">
  <metadata id="CorelCorpID_0Corel-Layer"/>
  <path class="fil0" d="M11.66 13.54l-10.63 -5.67 0.54 -0.29 -1.03 -0.55 -0.54 0.29 0 3.05 11.66 6.22 11.67 -6.22 0 -1.1 -11.67 6.22 -5.3 -2.83 0 -0.84 5.3 2.83 0 -1.11zm0 -11.15l1.8 0.96 -5.39 2.87 0.9 0.48 5.39 -2.87 4.49 2.39 -7.19 3.83 -1.79 -0.96 5.38 -2.87 -0.89 -0.48 -5.39 2.88 -4.49 -2.4 7.18 -3.83zm0 -2.39l-11.66 6.22 11.66 6.22 11.67 -6.22 -11.67 -6.22zm0 17.69l-10.63 -5.67 0.54 -0.29 -1.03 -0.55 -0.54 0.29 0 3.05 11.66 6.22 11.67 -6.22 0 -1.1 -11.67 6.22 -6.52 -3.48 0 -0.84 6.52 3.48 0 -1.11zm-7.3 -2.79l-0.78 -0.41 0 0.84 0.78 0.41 0 -0.84zm-0.33 -4.32l-0.78 -0.42 0 0.84 0.78 0.42 0 -0.84zm1.55 0.83l-0.78 -0.42 0 0.84 0.78 0.42 0 -0.84z"/>
 </g>
</svg>
