<?xml version="1.0" encoding="UTF-8"?>
<!DOCTYPE svg PUBLIC "-//W3C//DTD SVG 1.1//EN" "http://www.w3.org/Graphics/SVG/1.1/DTD/svg11.dtd">
<!-- Creator: CorelDRAW -->
<svg xmlns="http://www.w3.org/2000/svg" xml:space="preserve" width="700px" height="686px" version="1.1" style="shape-rendering:geometricPrecision; text-rendering:geometricPrecision; image-rendering:optimizeQuality; fill-rule:evenodd; clip-rule:evenodd"
viewBox="0 0 112.29 110.05"
 xmlns:xlink="http://www.w3.org/1999/xlink"
 xmlns:xodm="http://www.corel.com/coreldraw/odm/2003">
 <defs>
  <style type="text/css">
   <![CDATA[
    .fil0 {fill:white}
   ]]>
  </style>
 </defs>
 <g id="Layer_x0020_1">
  <metadata id="CorelCorpID_0Corel-Layer"/>
  <path class="fil0" d="M56.14 75.41l-51.19 -27.31 2.6 -1.38 -4.95 -2.64 -2.6 1.38 0 14.68 56.14 29.95 56.15 -29.95 0 -5.28 -56.15 29.95 -25.53 -13.63 0 -4.05 25.53 13.62 0 -5.34zm36.71 -55.13c-2.92,1.55 0.65,-0.35 -5.08,2.71 1.69,0.9 3.39,1.8 5.08,2.71 1.7,-0.91 3.39,-1.81 5.08,-2.71 -1.69,-0.91 -3.38,-1.81 -5.08,-2.71zm-10.89 -10.65c-4.24,2.26 0.94,-0.5 -7.38,3.93 2.46,1.32 4.92,2.63 7.38,3.95 2.46,-1.32 4.93,-2.63 7.39,-3.95 -2.46,-1.31 -4.93,-2.62 -7.39,-3.93zm-16.97 -6.48c1.97,1.05 3.93,2.1 5.9,3.14 1.97,-1.04 3.93,-2.09 5.9,-3.14 -1.97,-1.05 -3.93,-2.1 -5.9,-3.15 -3.38,1.81 0.75,-0.4 -5.9,3.15zm-26.27 11.7c1.6,-0.85 3.2,-1.71 4.79,-2.56 -1.59,-0.85 -3.19,-1.71 -4.79,-2.56 -2.76,1.47 0.6,-0.32 -4.8,2.56 1.6,0.85 3.2,1.71 4.8,2.56zm8.5 -2.58c3.96,2.1 7.91,4.21 11.86,6.32 3.95,-2.11 7.91,-4.22 11.86,-6.32 -3.95,-2.11 -7.91,-4.22 -11.86,-6.33 -6.81,3.63 1.5,-0.8 -11.86,6.33zm-47.22 27.91c18.71,9.98 37.43,19.96 56.14,29.94 18.72,-9.98 37.43,-19.96 56.15,-29.94l-41.88 -22.34 -10.79 5.75 0.85 0.45c1.43,0.77 2.88,1.54 4.32,2.31 -4.32,2.31 -8.65,4.61 -12.97,6.92 -4.32,2.3 -8.64,4.61 -12.96,6.91 1.43,0.77 2.87,1.54 4.31,2.3 4.32,-2.3 8.64,-4.61 12.97,-6.91 4.32,-2.31 8.64,-4.61 12.97,-6.92 3.6,1.92 7.21,3.85 10.81,5.77 3.59,1.92 7.19,3.84 10.8,5.76 -5.77,3.07 -11.54,6.15 -17.3,9.22 -5.77,3.07 -11.52,6.15 -17.28,9.22 -2.89,-1.53 -5.76,-3.07 -8.65,-4.61 4.32,-2.31 8.65,-4.61 12.96,-6.91 4.32,-2.31 8.65,-4.61 12.97,-6.92 -1.43,-0.77 -2.88,-1.53 -4.32,-2.3 -4.32,2.3 -8.65,4.61 -12.97,6.91 -4.32,2.3 -8.64,4.61 -12.96,6.91 -3.6,-1.91 -7.2,-3.84 -10.8,-5.76 -3.6,-1.91 -7.21,-3.84 -10.8,-5.76 5.76,-3.07 11.52,-6.15 17.28,-9.22l16.75 -8.94 -7.09 -3.77 -4.56 2.43 -3.7 -1.97 -40.25 21.47zm71.8 -13.09c-1.81,-0.96 -3.62,-1.93 -5.44,-2.9 6.13,-3.26 2.32,-1.23 5.44,-2.89 1.81,0.96 3.62,1.93 5.43,2.89 -1.81,0.97 -3.62,1.94 -5.43,2.9zm-15.66 68.28l-51.19 -27.3 2.6 -1.39 -4.95 -2.64 -2.6 1.39 0 4.69 0 9.99 56.14 29.94 36.33 -19.38 4.96 -2.64 14.86 -7.92 0 -5.29 -14.86 7.93 -4.96 2.64 -36.33 19.38 -25.53 -13.62 -5.89 -3.14 0 -4.06 6.41 3.42 25.01 13.35 0 -5.35zm-35.16 -13.41l-3.74 -2 0 4.06 3.74 1.99 0 -4.05zm-1.6 -20.82l-3.74 -2 0 4.06 3.74 1.99 0 -4.05zm7.48 3.99l-3.74 -1.99 0 4.05 3.74 2 0 -4.06z"/>
 </g>
</svg>
