<?xml version="1.0" encoding="UTF-8"?>
<!DOCTYPE svg PUBLIC "-//W3C//DTD SVG 1.1//EN" "http://www.w3.org/Graphics/SVG/1.1/DTD/svg11.dtd">
<!-- Creator: CorelDRAW -->
<svg xmlns="http://www.w3.org/2000/svg" xml:space="preserve" width="1956px" height="467px" version="1.1" style="shape-rendering:geometricPrecision; text-rendering:geometricPrecision; image-rendering:optimizeQuality; fill-rule:evenodd; clip-rule:evenodd"
viewBox="0 0 591.43 141.26"
 xmlns:xlink="http://www.w3.org/1999/xlink"
 xmlns:xodm="http://www.corel.com/coreldraw/odm/2003">
 <defs>
  <style type="text/css">
   <![CDATA[
    .fil0 {fill:white}
    .fil1 {fill:white;fill-rule:nonzero}
   ]]>
  </style>
 </defs>
 <g id="Layer_x0020_1">
  <metadata id="CorelCorpID_0Corel-Layer"/>
  <g id="_2189756257392">
   <path class="fil0" d="M72.06 96.79l-65.7 -35.05 3.33 -1.77 -6.36 -3.4 -3.33 1.78 0 18.85 72.06 38.44 72.07 -38.44 0 -6.79 -72.07 38.45 -32.77 -17.49 0 -5.21 32.77 17.49 0 -6.86zm47.12 -70.76l-6.52 3.48 6.52 3.47 6.53 -3.47 -6.53 -3.48zm-13.98 -13.68l-9.48 5.06 9.48 5.06 9.49 -5.06 -9.49 -5.06zm-21.78 -8.31l7.57 4.04 7.58 -4.04 -7.58 -4.04 -7.57 4.04zm-33.72 15.02l6.15 -3.28 -6.15 -3.29 -6.16 3.29 6.16 3.28zm10.91 -3.32l15.23 8.13 15.22 -8.13 -15.22 -8.12 -15.23 8.12zm-60.61 35.83l72.06 38.44 72.07 -38.44 -53.75 -28.67 -13.85 7.38 6.63 3.54 -33.29 17.76 5.54 2.95 33.3 -17.75 27.73 14.79 -44.38 23.67 -11.1 -5.91 33.29 -17.75 -5.55 -2.96 -33.29 17.75 -27.73 -14.8 43.69 -23.3 -9.1 -4.85 -5.86 3.13 -4.75 -2.54 -51.66 27.56zm92.16 -16.8l-6.98 -3.72 6.98 -3.72 6.97 3.72 -6.97 3.72zm-20.1 87.65l-65.7 -35.05 3.33 -1.78 -6.36 -3.39 -3.33 1.78 0 18.84 72.06 38.44 72.07 -38.43 0 -6.79 -72.07 38.44 -40.33 -21.51 0 -5.21 40.33 21.52 0 -6.86zm-45.13 -17.22l-4.81 -2.56 0 5.2 4.81 2.56 0 -5.2zm-2.06 -26.72l-4.8 -2.57 0 5.21 4.8 2.56 0 -5.2zm9.61 5.12l-4.8 -2.56 0 5.2 4.8 2.57 0 -5.21z"/>
   <path class="fil1" d="M169.46 91.63c0.61,16.66 12.68,28.38 33.33,28.38 17.74,0 30.06,-10.27 30.06,-24.88 0,-16.42 -14.13,-21 -27.89,-23.3 -12.68,-2.17 -22.94,-4.22 -22.94,-14.37 0,-9.05 7.37,-13.88 18.35,-13.88 11.47,0 19.32,6.4 20.53,16.18l10.86 0c-0.96,-15.21 -12.55,-25.72 -31.39,-25.72 -17.14,0 -28.85,9.66 -28.85,24.03 0,16.42 14,20.89 27.64,23.18 12.8,2.17 23.19,4.35 23.19,14.85 0,9.18 -8.09,14.37 -19.44,14.37 -12.92,0 -21.74,-7.49 -22.58,-18.84l-10.87 0zm75.22 27.65l9.9 0 0 -84.51 -9.9 0 0 84.51zm77.87 -9.05c-2.77,0 -3.98,-0.85 -3.98,-4.11l0 -26.92c0,-14.37 -9.05,-22.22 -24.75,-22.22 -14.85,0 -24.63,7.13 -26.08,19.2l9.9 0c1.21,-6.28 7,-10.38 15.7,-10.38 9.66,0 15.33,4.83 15.33,12.79l0 4.23 -18.11 0c-16.18,0 -24.75,6.88 -24.75,19.2 0,11.22 9.18,17.99 22.7,17.99 10.62,0 16.78,-4.71 20.64,-10.27 0.12,6.04 2.9,9.54 11.11,9.54l5.43 0 0 -9.05 -3.14 0zm-13.88 -16.06c0,10.26 -7.12,17.38 -19.44,17.38 -8.21,0 -13.4,-4.1 -13.4,-10.14 0,-7 4.95,-10.26 13.76,-10.26l19.08 0 0 3.02zm29.22 9.05c0,10.87 4.22,16.06 16.06,16.06l10.74 0 0 -9.05 -9.78 0c-5.31,0 -7.12,-1.94 -7.12,-7.13l0 -36.34 15.93 0 0 -9.05 -15.93 0 0 -17.27 -9.9 0 0 17.27 -11.11 0 0 9.05 11.11 0 0 36.46zm62.18 16.79c14.24,0 24.38,-9.06 26.8,-21.38l-10.02 0c-2.06,7.97 -8.82,12.56 -17.51,12.56 -11.71,0 -19.08,-8.21 -19.44,-19.92l0 -0.84 47.81 0c0.12,-1.45 0.25,-2.9 0.25,-4.23 -0.49,-18.23 -11.84,-29.22 -29.22,-29.22 -17.39,0 -29.22,12.8 -29.22,31.51 0,18.84 12.07,31.52 30.55,31.52zm-19.56 -37.79c0.96,-10.03 9.29,-16.55 18.35,-16.55 10.26,0 17.5,5.92 18.47,16.55l-36.82 0zm90.06 37.06c26.32,0 43.83,-17.63 43.83,-42.38 0,-24.87 -17.51,-42.13 -43.83,-42.13l-30.78 0 0 84.51 30.78 0zm-12.67 -69.42l12.67 0c16.18,0 25.24,10.86 25.24,27.04 0,16.06 -9.06,27.29 -25.24,27.29l-12.67 0 0 -54.33zm67.49 69.42l33.68 0c20.77,0 32.36,-9.3 32.36,-24.03 0,-12.07 -7.73,-17.98 -18.96,-19.43 9.66,-2.06 15.94,-8.09 15.94,-18.72 0,-14.12 -11.35,-22.33 -30.91,-22.33l-32.11 0 0 84.51zm32.6 -70.27c7.84,0 12.31,3.99 12.31,10.27 0,6.27 -4.59,10.26 -12.31,10.26l-14.49 0 0 -20.53 14.49 0zm1.2 34.53c8.57,0 13.65,3.99 13.65,10.87 0,6.52 -4.95,10.5 -13.65,10.5l-15.69 0 0 -21.37 15.69 0z"/>
  </g>
 </g>
</svg>
