<svg width="546" height="111" viewBox="0 0 546 111" fill="none" xmlns="http://www.w3.org/2000/svg">
<g clip-path="url(#clip0_232_283)">
<path fill-rule="evenodd" clip-rule="evenodd" d="M82.4733 72.4658L25.5451 42.1201L28.4371 40.568L22.921 37.6244L20.0291 39.1765V55.5L82.4733 88.7893L144.971 55.5V49.6128L82.4733 82.9021L54.0895 67.756V63.2604L82.4733 78.4065V72.4658ZM82.4733 12.7912L92.113 17.9291L63.2473 33.2893L68.0672 35.8582L96.9329 20.4981L120.979 33.2893L82.4733 53.7874L72.887 48.6495L101.699 33.2893L96.9329 30.7203L68.0672 46.134L44.0213 33.2893L82.4733 12.7912ZM82.4733 0L20.0291 33.2893L82.4733 66.5786L144.971 33.2893L82.4733 0ZM82.4733 94.6765L25.5451 64.3308L28.4371 62.7787L22.921 59.8351L20.0291 61.3872V77.7107L82.4733 111L144.971 77.7107V71.8235L82.4733 105.113L47.5559 86.4879V81.9923L82.4733 100.617V94.6765ZM43.3787 79.7445L39.2015 77.5501V82.0458L43.3787 84.2401V79.7445ZM41.6114 56.6239L37.4342 54.3761V58.8717L41.6114 61.1196V56.6239ZM49.9123 61.0661L45.7351 58.8182V63.3139L49.9123 65.5617V61.0661Z" fill="black"/>
</g>
<path d="M196.604 86.756C193.3 86.756 190.388 86.224 187.868 85.16C185.404 84.096 183.444 82.64 181.988 80.792C180.588 78.888 179.776 76.648 179.552 74.072H188.624C188.848 75.584 189.66 76.816 191.06 77.768C192.46 78.664 194.308 79.112 196.604 79.112H200.216C202.96 79.112 205.032 78.552 206.432 77.432C207.832 76.312 208.532 74.828 208.532 72.98C208.532 71.188 207.888 69.788 206.6 68.78C205.368 67.716 203.52 67.016 201.056 66.68L195.092 65.756C190.164 64.972 186.524 63.572 184.172 61.556C181.876 59.484 180.728 56.432 180.728 52.4C180.728 48.144 182.1 44.868 184.844 42.572C187.644 40.22 191.76 39.044 197.192 39.044H200.384C205.2 39.044 209.036 40.164 211.892 42.404C214.804 44.588 216.456 47.528 216.848 51.224H207.776C207.552 49.88 206.796 48.788 205.508 47.948C204.276 47.108 202.568 46.688 200.384 46.688H197.192C194.56 46.688 192.628 47.192 191.396 48.2C190.22 49.152 189.632 50.58 189.632 52.484C189.632 54.164 190.164 55.424 191.228 56.264C192.292 57.104 193.944 57.692 196.184 58.028L202.316 59.036C207.524 59.764 211.332 61.22 213.74 63.404C216.204 65.532 217.436 68.64 217.436 72.728C217.436 77.152 215.98 80.596 213.068 83.06C210.212 85.524 205.928 86.756 200.216 86.756H196.604ZM255.203 86C252.347 86 249.855 85.44 247.727 84.32C245.599 83.144 243.919 81.492 242.687 79.364C241.511 77.236 240.923 74.772 240.923 71.972V32.912H225.803V24.68H249.995V71.972C249.995 73.764 250.499 75.192 251.507 76.256C252.515 77.264 253.887 77.768 255.623 77.768H269.903V86H255.203ZM294.314 86.84C289.498 86.84 285.69 85.608 282.89 83.144C280.146 80.624 278.774 77.208 278.774 72.896C278.774 68.528 280.23 65.112 283.142 62.648C286.11 60.128 290.17 58.868 295.322 58.868H308.174V54.584C308.174 52.064 307.39 50.104 305.822 48.704C304.254 47.304 302.042 46.604 299.186 46.604C296.666 46.604 294.566 47.164 292.886 48.284C291.206 49.348 290.226 50.776 289.946 52.568H281.042C281.546 48.424 283.45 45.12 286.754 42.656C290.114 40.192 294.342 38.96 299.438 38.96C304.926 38.96 309.266 40.36 312.458 43.16C315.65 45.904 317.246 49.656 317.246 54.416V86H308.426V77.516H306.914L308.426 75.836C308.426 79.196 307.138 81.884 304.562 83.9C301.986 85.86 298.57 86.84 294.314 86.84ZM297.002 79.868C300.25 79.868 302.91 79.056 304.982 77.432C307.11 75.752 308.174 73.624 308.174 71.048V65H295.49C293.138 65 291.262 65.644 289.862 66.932C288.518 68.22 287.846 69.984 287.846 72.224C287.846 74.576 288.658 76.452 290.282 77.852C291.906 79.196 294.146 79.868 297.002 79.868ZM354.342 86C350.142 86 346.866 84.852 344.514 82.556C342.162 80.26 340.986 77.068 340.986 72.98V48.032H328.218V39.8H340.986V26.78H350.058V39.8H368.118V48.032H350.058V72.98C350.058 76.172 351.598 77.768 354.678 77.768H367.278V86H354.342ZM399.669 86.84C395.917 86.84 392.613 86.112 389.757 84.656C386.957 83.144 384.801 81.044 383.289 78.356C381.777 75.668 381.021 72.532 381.021 68.948V56.852C381.021 53.212 381.777 50.076 383.289 47.444C384.801 44.756 386.957 42.684 389.757 41.228C392.613 39.716 395.917 38.96 399.669 38.96C403.477 38.96 406.781 39.716 409.581 41.228C412.381 42.684 414.537 44.756 416.049 47.444C417.561 50.076 418.317 53.212 418.317 56.852V65.084H389.757V68.948C389.757 72.364 390.597 74.968 392.277 76.76C394.013 78.552 396.505 79.448 399.753 79.448C402.385 79.448 404.513 79 406.137 78.104C407.761 77.152 408.769 75.78 409.161 73.988H418.149C417.477 77.908 415.461 81.044 412.101 83.396C408.741 85.692 404.597 86.84 399.669 86.84ZM409.581 59.624V56.768C409.581 53.408 408.741 50.804 407.061 48.956C405.381 47.108 402.917 46.184 399.669 46.184C396.477 46.184 394.013 47.108 392.277 48.956C390.597 50.804 389.757 53.436 389.757 56.852V58.952L410.253 58.868L409.581 59.624ZM446.76 86.84C442.112 86.84 438.388 85.272 435.588 82.136C432.788 79 431.388 74.772 431.388 69.452V56.432C431.388 51.056 432.788 46.8 435.588 43.664C438.388 40.528 442.112 38.96 446.76 38.96C450.568 38.96 453.592 40.024 455.832 42.152C458.072 44.224 459.192 47.08 459.192 50.72L457.26 48.62H459.36L459.108 37.868V24.68H468.18V86H459.192V77.18H457.26L459.192 75.08C459.192 78.72 458.072 81.604 455.832 83.732C453.592 85.804 450.568 86.84 446.76 86.84ZM449.868 78.944C452.724 78.944 454.964 78.076 456.588 76.34C458.268 74.548 459.108 72.084 459.108 68.948V56.852C459.108 53.716 458.268 51.28 456.588 49.544C454.964 47.752 452.724 46.856 449.868 46.856C446.9 46.856 444.576 47.724 442.896 49.46C441.216 51.14 440.376 53.604 440.376 56.852V68.948C440.376 72.196 441.216 74.688 442.896 76.424C444.576 78.104 446.9 78.944 449.868 78.944ZM503.679 86.84C499.871 86.84 496.847 85.804 494.607 83.732C492.367 81.604 491.247 78.72 491.247 75.08L493.179 77.18H491.247V86H482.259V24.68H491.331V37.868L491.079 48.62H493.179L491.247 50.72C491.247 47.08 492.367 44.224 494.607 42.152C496.903 40.024 499.927 38.96 503.679 38.96C508.327 38.96 512.051 40.528 514.851 43.664C517.651 46.8 519.051 51.056 519.051 56.432V69.452C519.051 74.772 517.651 79 514.851 82.136C512.051 85.272 508.327 86.84 503.679 86.84ZM500.571 78.944C503.539 78.944 505.863 78.104 507.543 76.424C509.223 74.688 510.063 72.196 510.063 68.948V56.852C510.063 53.604 509.223 51.14 507.543 49.46C505.863 47.724 503.539 46.856 500.571 46.856C497.715 46.856 495.447 47.752 493.767 49.544C492.143 51.28 491.331 53.716 491.331 56.852V68.948C491.331 72.084 492.143 74.548 493.767 76.34C495.447 78.076 497.715 78.944 500.571 78.944Z" fill="black"/>
<defs>
<clipPath id="clip0_232_283">
<rect width="125" height="111" fill="white" transform="translate(20)"/>
</clipPath>
</defs>
</svg>
