<svg width="230" height="30" viewBox="0 0 230 30" fill="none" xmlns="http://www.w3.org/2000/svg">
<g clip-path="url(#clip0_191_243)">
<path d="M16.2122 1.97363V15.4986H0.0349492H0V15.6742V29.6021H0.0349492H16.2122V15.6742V15.4882H48.2526V1.97363H16.2122Z" fill="#BCF080"/>
<path d="M221.058 3.70032V8.74963H228.998V11.5055H221.058V22.8375C221.058 23.6469 221.161 24.315 221.366 24.8418C221.572 25.3686 221.854 25.7862 222.214 26.0945C222.574 26.4157 222.985 26.6405 223.447 26.769C223.923 26.8975 224.424 26.9617 224.951 26.9617C225.336 26.9617 225.734 26.9425 226.145 26.9039C226.557 26.8525 226.961 26.7947 227.36 26.7305C227.745 26.6662 228.105 26.602 228.439 26.5377C228.786 26.4606 229.068 26.3964 229.287 26.345L229.788 28.8697C229.492 29.0496 229.133 29.2101 228.709 29.3515C228.285 29.4799 227.822 29.5892 227.321 29.6791C226.82 29.7819 226.287 29.859 225.721 29.9104C225.169 29.9618 224.617 29.9875 224.064 29.9875C223.139 29.9875 222.272 29.859 221.462 29.602C220.666 29.3322 219.972 28.9082 219.381 28.33C218.79 27.7647 218.321 27.0324 217.974 26.133C217.64 25.2208 217.473 24.1223 217.473 22.8375V11.5055H212V8.74963H217.473V3.70032H221.058Z" fill="black"/>
<path d="M201.964 29.9875C200.499 29.9875 199.15 29.737 197.917 29.2359C196.696 28.7348 195.649 28.0346 194.775 27.1353C193.901 26.2359 193.221 25.1695 192.733 23.9361C192.244 22.7027 192 21.3601 192 19.9082V19.0988C192 17.4157 192.27 15.9125 192.81 14.5891C193.349 13.2529 194.069 12.1223 194.968 11.1972C195.855 10.285 196.863 9.58482 197.994 9.09657C199.137 8.60836 200.306 8.36426 201.501 8.36426C203.004 8.36426 204.315 8.62763 205.433 9.1544C206.563 9.66831 207.501 10.3814 208.247 11.2936C208.992 12.2187 209.544 13.3043 209.904 14.5506C210.276 15.7968 210.463 17.1459 210.463 18.5977V20.1973H195.565V20.3322C195.655 21.3472 195.855 22.2401 196.163 23.011C196.484 23.7819 196.921 24.4628 197.473 25.0538C198.039 25.6834 198.72 26.1781 199.516 26.5378C200.313 26.8975 201.193 27.0774 202.157 27.0774C203.428 27.0774 204.559 26.8205 205.549 26.3065C206.538 25.7926 207.36 25.1117 208.015 24.2637L210.193 25.9597C209.499 27.0132 208.459 27.9511 207.071 28.7734C205.696 29.5828 203.994 29.9875 201.964 29.9875ZM201.501 11.2936C200.782 11.2936 200.101 11.4285 199.459 11.6983C198.816 11.9553 198.238 12.3343 197.724 12.8354C197.21 13.3493 196.773 13.9788 196.414 14.724C196.067 15.4564 195.822 16.3043 195.681 17.2679H206.897V17.0945C206.897 16.4521 206.775 15.7647 206.531 15.0324C206.287 14.2872 205.947 13.6448 205.51 13.1052C205.073 12.5656 204.521 12.1287 203.852 11.7947C203.197 11.4606 202.414 11.2936 201.501 11.2936Z" fill="black"/>
<path d="M179.239 19.8695L176.618 22.3942V29.6019H173.033V0H176.618V18.1158L178.95 15.6104L185.791 8.74954H190.128L181.686 17.4412L191.419 29.6019H186.89L179.239 19.8695Z" fill="black"/>
<path d="M160.623 27.0967C161.265 27.0967 161.888 26.9939 162.492 26.7884C163.109 26.5828 163.655 26.2937 164.13 25.9211C164.605 25.5614 164.984 25.1374 165.267 24.6492C165.563 24.1481 165.717 23.6085 165.73 23.0303H169.102C169.089 23.9554 168.845 24.8419 168.37 25.6898C167.907 26.525 167.284 27.2573 166.501 27.8869C165.717 28.5293 164.817 29.0432 163.803 29.4286C162.787 29.8012 161.727 29.9875 160.623 29.9875C159.042 29.9875 157.661 29.7049 156.479 29.1395C155.297 28.5742 154.314 27.8098 153.53 26.8462C152.734 25.8954 152.137 24.7969 151.738 23.5507C151.34 22.2915 151.141 20.9682 151.141 19.5806V18.7712C151.141 17.3964 151.34 16.0795 151.738 14.8204C152.137 13.5613 152.734 12.4499 153.53 11.4863C154.314 10.5355 155.297 9.77753 156.479 9.21219C157.661 8.64689 159.042 8.36426 160.623 8.36426C161.856 8.36426 162.987 8.5634 164.015 8.96169C165.055 9.34711 165.954 9.87389 166.713 10.542C167.458 11.2229 168.042 12.026 168.466 12.951C168.89 13.876 169.102 14.8654 169.102 15.9189H165.73C165.717 15.2894 165.575 14.6983 165.306 14.1458C165.049 13.5805 164.695 13.0859 164.246 12.6619C163.796 12.2379 163.256 11.9039 162.627 11.6598C162.01 11.4157 161.342 11.2936 160.623 11.2936C159.518 11.2936 158.586 11.5184 157.828 11.9681C157.083 12.4049 156.479 12.9767 156.016 13.6833C155.554 14.4028 155.22 15.2058 155.014 16.0923C154.822 16.9789 154.725 17.8718 154.725 18.7712V19.5806C154.725 20.4928 154.822 21.3986 155.014 22.298C155.22 23.1845 155.554 23.9811 156.016 24.6877C156.466 25.4072 157.064 25.9918 157.809 26.4415C158.567 26.8783 159.505 27.0967 160.623 27.0967Z" fill="black"/>
<path d="M144.454 29.6022L144.241 26.7306C143.548 27.7585 142.68 28.5615 141.64 29.1397C140.599 29.705 139.398 29.9876 138.036 29.9876C136.944 29.9876 135.955 29.8206 135.068 29.4865C134.181 29.1397 133.424 28.6064 132.794 27.887C132.164 27.1675 131.676 26.2552 131.329 25.1503C130.995 24.0325 130.828 22.6963 130.828 21.1417V8.74976H134.393V21.1803C134.393 22.3109 134.483 23.2488 134.663 23.994C134.843 24.7392 135.113 25.3302 135.473 25.767C135.833 26.2167 136.269 26.5315 136.783 26.7113C137.31 26.8912 137.914 26.9812 138.595 26.9812C139.391 26.9812 140.104 26.8912 140.734 26.7113C141.364 26.5186 141.91 26.2552 142.372 25.9212C142.757 25.6514 143.091 25.3302 143.374 24.9576C143.67 24.5722 143.914 24.1546 144.107 23.7049V8.74976H147.691V29.6022H144.454Z" fill="black"/>
<path d="M127.378 19.407C127.378 20.3192 127.307 21.1993 127.166 22.0473C127.037 22.8824 126.845 23.6661 126.588 24.3984C126.241 25.3621 125.784 26.2293 125.219 27.0002C124.667 27.7582 123.999 28.3878 123.215 28.8889C122.649 29.2358 122.027 29.5056 121.346 29.6983C120.677 29.891 119.951 29.9874 119.168 29.9874C118.268 29.9874 117.446 29.8781 116.701 29.6597C115.969 29.4413 115.307 29.1266 114.716 28.7154C114.433 28.5098 114.163 28.285 113.906 28.0409C113.649 27.7968 113.406 27.527 113.174 27.2315L113.001 29.6019H109.725V0H113.29V10.9851C113.586 10.6125 113.913 10.2784 114.273 9.98293C114.632 9.67461 115.018 9.4112 115.429 9.19279C115.943 8.92299 116.508 8.71741 117.125 8.57609C117.742 8.43474 118.41 8.36408 119.129 8.36408C120.029 8.36408 120.857 8.48613 121.615 8.73024C122.374 8.97438 123.061 9.31484 123.677 9.7517C124.23 10.1628 124.725 10.6639 125.162 11.2549C125.598 11.8331 125.984 12.4819 126.318 13.2014C126.665 14.0108 126.928 14.9102 127.108 15.8995C127.288 16.8759 127.378 17.9102 127.378 19.0023V19.407ZM123.812 19.0023C123.812 18.347 123.767 17.7111 123.677 17.0944C123.6 16.4648 123.478 15.8738 123.311 15.3213C123.08 14.6404 122.778 14.0172 122.406 13.4519C122.033 12.8866 121.577 12.4433 121.037 12.1221C120.665 11.8909 120.247 11.711 119.784 11.5825C119.322 11.454 118.808 11.3898 118.243 11.3898C117.626 11.3898 117.061 11.4733 116.547 11.6404C116.033 11.7945 115.577 12.0129 115.179 12.2956C114.767 12.5911 114.401 12.938 114.08 13.3363C113.772 13.7217 113.508 14.1457 113.29 14.6083V23.724C113.521 24.1865 113.791 24.6169 114.099 25.0152C114.42 25.4006 114.787 25.7411 115.198 26.0366C115.609 26.3321 116.072 26.5634 116.586 26.7304C117.099 26.8846 117.665 26.9617 118.281 26.9617C118.872 26.9617 119.412 26.891 119.9 26.7497C120.388 26.5955 120.825 26.3771 121.211 26.0944C121.725 25.7347 122.155 25.2786 122.502 24.7261C122.849 24.1736 123.125 23.5569 123.331 22.876C123.498 22.362 123.62 21.8096 123.697 21.2186C123.774 20.6276 123.812 20.0237 123.812 19.407V19.0023Z" fill="black"/>
<path d="M88.453 8.74968L88.5493 10.7154C88.9733 9.98311 89.5259 9.41134 90.2069 9.00022C90.9008 8.5891 91.7357 8.37709 92.7122 8.36426C93.2649 8.36426 93.7595 8.42848 94.1961 8.55697C94.6457 8.67259 95.0376 8.84603 95.3716 9.07731C95.6159 9.25719 95.8342 9.4756 96.0269 9.73257C96.2325 9.98951 96.4062 10.2786 96.5475 10.5998C96.7271 10.3043 96.9391 10.0281 97.1834 9.7711C97.4274 9.51413 97.6907 9.28928 97.9733 9.09657C98.3333 8.87817 98.7316 8.70472 99.1682 8.57623C99.6182 8.44774 100.106 8.37709 100.633 8.36426C101.353 8.36426 102.001 8.47344 102.579 8.69185C103.158 8.89743 103.646 9.2058 104.044 9.61692C104.481 10.0795 104.815 10.6833 105.046 11.4285C105.278 12.1608 105.393 13.0281 105.393 14.0302V29.6021H102.001V13.9917C102.001 13.5549 101.95 13.1694 101.847 12.8354C101.744 12.5013 101.597 12.2251 101.404 12.0067C101.198 11.8011 100.941 11.6469 100.633 11.5441C100.337 11.4413 99.9908 11.39 99.5925 11.39C99.1682 11.39 98.8022 11.4478 98.494 11.5634C98.1857 11.679 97.9287 11.8332 97.723 12.026C97.5174 12.2315 97.3567 12.4692 97.2411 12.739C97.1254 12.996 97.0484 13.285 97.0097 13.6062C97.0097 13.6705 97.0097 13.7347 97.0097 13.799C97.0097 13.8504 97.0097 13.9146 97.0097 13.9917V29.6021H93.6182V13.9724C93.6182 13.5356 93.5665 13.1501 93.4638 12.8161C93.3738 12.482 93.2262 12.2058 93.0205 11.9874C92.8279 11.7818 92.5836 11.6341 92.2883 11.5441C92.0057 11.4413 91.6713 11.39 91.2861 11.39C90.8621 11.39 90.4895 11.4413 90.1682 11.5441C89.8599 11.6341 89.5966 11.769 89.3783 11.9489C89.2109 12.0902 89.0633 12.2508 88.935 12.4306C88.8194 12.6105 88.723 12.8032 88.6457 13.0088V29.6021H85.2541V8.74968H88.453Z" fill="black"/>
<path d="M78.7865 16.6321H67.0692V26.5764H80.733V29.6022H63.5039V1.54199H80.5597V4.58697H67.0692V13.6063H78.7865V16.6321Z" fill="black"/>
</g>
<defs>
<clipPath id="clip0_191_243">
<rect width="230" height="30" fill="black"/>
</clipPath>
</defs>
</svg>
