<svg width="115" height="30" viewBox="0 0 115 30" fill="none" xmlns="http://www.w3.org/2000/svg">
<path fill-rule="evenodd" clip-rule="evenodd" d="M45.7176 5.96115C47.0083 5.93795 48.2841 6.23931 49.428 6.83757C50.5724 7.4361 51.548 8.3126 52.2653 9.38655L52.3448 9.50567L50.2823 11.255L50.184 11.0966C49.7109 10.3346 49.049 9.70768 48.2623 9.27673C47.4757 8.84578 46.591 8.62541 45.6941 8.63697L45.693 8.63698C42.5255 8.65649 40.2986 11.1091 40.2986 14.4329C40.2986 17.756 42.6117 20.3094 45.8463 20.3094H45.8494L45.8525 20.3095C46.7422 20.3436 47.6252 20.1428 48.4128 19.7273C49.1867 19.319 49.8416 18.7176 50.3141 17.9817V16.4517H45.5314V13.8295H53.1107V18.5793L53.091 18.6153C52.3685 19.9364 51.3011 21.0368 50.0027 21.7992C48.7045 22.5615 47.224 22.9575 45.7186 22.945C44.609 22.9507 43.5096 22.7337 42.4853 22.307C41.4606 21.8801 40.5321 21.2519 39.7546 20.4598C38.9771 19.6676 38.3664 18.7275 37.9588 17.695C37.5515 16.6637 37.3552 15.5613 37.3812 14.4529C37.358 13.3452 37.5563 12.2441 37.9645 11.2141C38.3732 10.183 38.9839 9.24405 39.7608 8.45248C40.5377 7.66092 41.4651 7.03273 42.4884 6.60488C43.5111 6.17724 44.6091 5.95838 45.7176 5.96115Z" fill="black"/>
<path fill-rule="evenodd" clip-rule="evenodd" d="M59.506 10.1065C58.5166 10.0792 57.5369 10.3072 56.6612 10.7686C55.7849 11.2303 55.0424 11.9102 54.5055 12.7425L54.4368 12.849L56.086 14.5753L56.2009 14.4332C57.1486 13.2617 58.0462 12.7085 59.2689 12.7085C60.0266 12.7085 60.597 12.9255 60.9788 13.3203C61.3614 13.7159 61.5768 14.3128 61.5768 15.117V15.7345H58.464C57.1366 15.7345 56.0345 16.0765 55.2607 16.7008C54.4834 17.328 54.0505 18.23 54.0505 19.3162C54.0505 20.4003 54.4716 21.3126 55.2131 21.9517C55.9516 22.5882 56.9962 22.9441 58.2319 22.9448C58.9529 22.9802 59.6723 22.8484 60.3339 22.5597C60.8682 22.3266 61.3532 21.9962 61.7646 21.5866V22.6765H64.3874L64.3599 15.278C64.3599 13.6345 63.8878 12.3376 63.0338 11.4512C62.1795 10.5645 60.9611 10.107 59.506 10.1065ZM57.3464 18.2514C57.0513 18.4615 56.894 18.7762 56.894 19.2223C56.894 19.6618 57.0769 20.0107 57.3924 20.2538C57.7119 20.5 58.1774 20.6447 58.7457 20.6447H58.7495L58.7533 20.6448C59.1155 20.6619 59.4774 20.6056 59.8173 20.4792C60.1571 20.3529 60.468 20.1592 60.7311 19.9097C60.9942 19.6601 61.2041 19.36 61.3483 19.0273C61.4925 18.6946 61.5679 18.3362 61.5701 17.9736L61.5701 17.9697L61.5718 17.9139H58.7793C58.1234 17.9139 57.6511 18.0344 57.3464 18.2514Z" fill="black"/>
<path fill-rule="evenodd" clip-rule="evenodd" d="M75.5092 4.0293H78.2991V22.6767H75.6769V21.2654C75.2493 21.7537 74.7285 22.154 74.1432 22.4417C73.4185 22.798 72.6174 22.9709 71.8103 22.945C68.4672 22.9436 66.0175 20.1724 66.0175 16.5326C66.0175 12.8972 68.5109 10.0194 71.8123 10.0932C72.5671 10.0713 73.317 10.2205 74.006 10.5296C74.5678 10.7817 75.0772 11.1348 75.5092 11.5702V4.0293ZM72.2153 12.7624C70.3428 12.7624 68.8275 14.2891 68.8275 16.5057C68.8275 18.7263 70.2794 20.2826 72.2153 20.2826C73.0826 20.2826 73.9104 19.973 74.521 19.3559C75.1307 18.7399 75.5361 17.8052 75.5361 16.5326C75.5361 15.2606 75.1244 14.3205 74.5108 13.699C73.8961 13.0763 73.0681 12.7624 72.2153 12.7624Z" fill="black"/>
<path fill-rule="evenodd" clip-rule="evenodd" d="M100.275 10.0932C96.8913 10.0188 94.0699 13.0036 94.1435 16.5324C94.1244 17.3751 94.2754 18.2129 94.5875 18.9959C94.9 19.78 95.3675 20.493 95.9621 21.0921C96.5567 21.6912 97.2661 22.1641 98.0479 22.4825C98.8289 22.8006 99.6659 22.9579 100.509 22.945C101.389 22.9577 102.263 22.7913 103.077 22.4558C103.892 22.1199 104.63 21.6218 105.246 20.9916L105.336 20.8988L103.976 18.8426L103.837 18.9812C102.974 19.8414 101.812 20.3342 100.593 20.3564L100.591 20.3565L100.588 20.3566C99.7201 20.4005 98.8677 20.1143 98.202 19.5556C97.583 19.0361 97.1681 18.3167 97.0266 17.525H105.549L105.576 17.3986C105.694 16.8575 105.759 16.306 105.768 15.7521C105.796 15.0158 105.674 14.2815 105.41 13.5935C105.146 12.905 104.745 12.2772 104.231 11.7481C103.718 11.2189 103.102 10.7995 102.422 10.515C101.742 10.2309 101.012 10.0874 100.275 10.0932ZM101.287 12.7606C100.943 12.6273 100.575 12.5662 100.207 12.5811L100.204 12.5813C99.4319 12.5976 98.6908 12.8873 98.1125 13.3989C97.5808 13.8692 97.2184 14.499 97.0777 15.1913H102.998C102.99 14.8755 102.926 14.5632 102.809 14.269C102.672 13.9265 102.467 13.6158 102.205 13.3563C101.943 13.0968 101.63 12.894 101.287 12.7606Z" fill="black"/>
<path fill-rule="evenodd" clip-rule="evenodd" d="M109.619 7.20902H110.886V10.3617H114.314V12.9034H110.886V18.3908C110.886 19.1341 111.072 19.5975 111.403 19.8812C111.74 20.1698 112.261 20.3029 112.999 20.3029C113.344 20.3029 113.825 20.2571 114.511 20.1831L114.689 20.1639V22.6424L114.567 22.6723C113.885 22.8383 113.187 22.9298 112.486 22.9452L112.483 22.9452C111.133 22.9452 110.024 22.6034 109.252 21.8769C108.479 21.1488 108.069 20.0577 108.069 18.6122V12.9034H106.191V11.6888L109.619 7.20902Z" fill="black"/>
<path fill-rule="evenodd" clip-rule="evenodd" d="M88.2418 10.599C87.5061 10.2426 86.6937 10.0738 85.877 10.1074C82.5808 10.1092 80.1051 12.7057 80.1051 16.3052C80.1051 19.9044 82.5606 22.5015 85.8774 22.503C86.6371 22.5304 87.3932 22.386 88.0894 22.0805C88.6592 21.8304 89.1769 21.4776 89.6169 21.0409V21.4837C89.6169 22.5785 89.292 23.3871 88.7294 23.9222C88.1661 24.4581 87.3428 24.7402 86.3057 24.7374C84.8384 24.691 83.4417 24.097 82.3903 23.0725L82.2595 22.945L80.7239 24.9874L80.8235 25.086C81.5683 25.8232 82.451 26.4064 83.4213 26.8023C84.3914 27.1981 85.43 27.3988 86.4778 27.3931C88.2609 27.393 89.7506 26.8509 90.7949 25.8101C91.8395 24.769 92.4202 23.2469 92.4202 21.3227V10.4294H89.8048V11.7885C89.3694 11.2929 88.8383 10.888 88.2418 10.599ZM85.0313 13.0023C85.3952 12.8538 85.7826 12.7729 86.1746 12.7632H86.3353C87.253 12.7632 88.0808 13.0767 88.6784 13.6576C89.2747 14.2373 89.656 15.1106 89.656 16.2851V16.29L89.6563 16.2948C89.6863 16.7876 89.6133 17.2811 89.442 17.7441C89.2709 18.2067 89.0054 18.6285 88.6625 18.983C88.358 19.2866 87.9954 19.5256 87.5963 19.6856C87.1968 19.8459 86.7691 19.9237 86.3387 19.9144L86.3351 19.9143L86.3315 19.9144C85.8863 19.9249 85.4437 19.8435 85.0313 19.6752C84.6196 19.5072 84.2468 19.2563 83.9363 18.9381C83.6113 18.5868 83.3589 18.1747 83.1938 17.7255C83.0284 17.2757 82.9538 16.7976 82.9741 16.3188L82.9744 16.3119L82.9741 16.305C82.9538 15.8347 83.0285 15.3651 83.1938 14.9243C83.359 14.4838 83.6113 14.0811 83.9355 13.7402C84.2462 13.4216 84.6192 13.1704 85.0313 13.0023Z" fill="black"/>
<path d="M2.8723 9.73519L15.9393 2.66613L29.3491 9.73519V19.8889L19.6238 21.774L15.9393 27.6863L2.8723 20.4459V9.73519Z" fill="white"/>
<path d="M29.8853 10.3403C29.8853 9.77288 29.579 9.25165 29.0864 8.96795L16.7248 1.93476C16.4785 1.7962 16.2056 1.72363 15.926 1.72363C15.6464 1.72363 15.3735 1.7962 15.1272 1.93476L2.79881 9.02735C2.30621 9.31105 2 9.83226 2 10.3997L2.01997 19.8213C2.01997 20.3887 2.32618 20.9099 2.81878 21.1936L14.6812 27.9431C15.0739 28.1674 15.5199 28.2862 15.9726 28.2862C16.4252 28.2862 16.8779 28.1674 17.2707 27.9365L20.8853 25.8582C21.3779 25.5745 21.6841 25.0533 21.6841 24.4859L21.6774 22.5197L23.4015 23.4962C23.6478 23.6348 23.9208 23.7073 24.2004 23.7073C24.4799 23.7073 24.7529 23.6348 24.9992 23.4962L29.1064 21.1342C29.599 20.8505 29.9052 20.3293 29.9052 19.7619L29.8853 10.3403ZM24.0539 12.7749C23.974 12.6363 23.8609 12.5241 23.7211 12.445L16.3986 8.27519C16.1124 8.11685 15.7662 8.11685 15.48 8.27519L8.17749 12.478C7.89125 12.6429 7.71817 12.9398 7.72483 13.2631L7.73149 17.0502C7.73149 17.2943 7.86462 17.5252 8.0843 17.6506L11.1464 19.3924C11.4593 19.5705 11.8587 19.3462 11.8587 18.9833L11.852 15.6119C11.852 15.2886 12.0251 14.9851 12.3047 14.8268L15.5 12.986C15.7795 12.8211 16.1323 12.8211 16.4186 12.986L19.6205 14.807C19.7603 14.8861 19.8801 15.0049 19.9533 15.1368L16.3653 17.2019C16.119 17.3471 15.9659 17.6044 15.9659 17.8881L15.9859 26.7093C15.8261 26.7093 15.6664 26.6697 15.5266 26.5906L4.08357 20.0786C3.79733 19.9202 3.62425 19.6167 3.62425 19.2934L3.60428 10.9209C3.60428 10.5976 3.77736 10.2941 4.05694 10.1358L15.4733 3.57099C15.7529 3.40605 16.1057 3.40605 16.392 3.57099L27.835 10.083C27.9748 10.1621 28.0946 10.2809 28.1678 10.4129L24.0539 12.7749Z" fill="#0B0B0F"/>
<path fill-rule="evenodd" clip-rule="evenodd" d="M29.8855 10.3405C29.8855 10.1291 29.843 9.92414 29.7642 9.73545C29.7086 9.60231 29.6349 9.47728 29.5453 9.36386C29.421 9.20659 29.2663 9.07162 29.0867 8.9682L16.725 1.93501C16.6206 1.87628 16.5115 1.82941 16.399 1.79489C16.2462 1.74797 16.0873 1.72389 15.9262 1.72389C15.7696 1.72389 15.615 1.74667 15.4661 1.79107C15.3492 1.82592 15.2357 1.87409 15.1274 1.93501L2.79906 9.0276C2.71901 9.0737 2.64388 9.12608 2.57418 9.18391C2.39173 9.33531 2.24654 9.52406 2.14784 9.73545C2.05224 9.94017 2.00025 10.1661 2.00025 10.3999L2.02022 19.8215C2.02022 20.0402 2.06573 20.2521 2.14987 20.4461C2.24278 20.6604 2.3828 20.8529 2.56069 21.009C2.63962 21.0782 2.726 21.1403 2.81903 21.1938L14.6814 27.9433C14.9716 28.1091 15.291 28.2172 15.6206 28.2624C15.737 28.2783 15.8547 28.2864 15.9728 28.2864C16.2268 28.2864 16.4807 28.249 16.7241 28.1754C16.8764 28.1294 17.0246 28.0691 17.1661 27.995C17.2015 27.9764 17.2364 27.957 17.2709 27.9367L20.8855 25.8584C21.3781 25.5747 21.6843 25.0535 21.6843 24.4861L21.6777 22.52L23.4018 23.4965C23.6481 23.635 23.921 23.7076 24.2006 23.7076C24.4802 23.7076 24.7531 23.635 24.9994 23.4965L29.1067 21.1345C29.2668 21.0422 29.4072 20.9249 29.5238 20.7891C29.739 20.5384 29.8731 20.2247 29.9003 19.8892C29.9037 19.8471 29.9055 19.8048 29.9055 19.7621L29.8855 10.3405ZM31.1709 10.3405L31.1909 19.7608V19.7621C31.1909 20.7974 30.6321 21.7393 29.7482 22.2483L29.7478 22.2485L25.635 24.6138L25.6296 24.6168C25.1949 24.8613 24.7055 24.993 24.2006 24.993C23.7677 24.993 23.3461 24.8962 22.9607 24.7144C22.8852 25.6585 22.3455 26.501 21.5271 26.9723L21.5266 26.9726L21.5262 26.9728L17.9166 29.0482C17.3212 29.3968 16.6447 29.5718 15.9728 29.5718C15.2962 29.5718 14.6307 29.3946 14.0444 29.0598C14.0442 29.0597 14.0441 29.0596 14.0439 29.0595L2.18043 22.3094L2.17752 22.3077C1.29409 21.7989 0.735383 20.8577 0.734814 19.8231C0.734814 19.8226 0.734813 19.822 0.734813 19.8215L0.714844 10.4013V10.3999C0.714844 9.36466 1.27367 8.42277 2.15755 7.91372L14.4918 0.817734L14.4972 0.814694C14.9319 0.570138 15.4214 0.438477 15.9262 0.438477C16.4311 0.438477 16.9205 0.57014 17.3553 0.814694L17.358 0.816226L29.7253 7.85263L29.7282 7.85432C30.6115 8.36302 31.1701 9.30398 31.1709 10.3384C31.1709 10.3391 31.1709 10.3398 31.1709 10.3405Z" fill="white" fill-opacity="0.3"/>
</svg>
