<svg xmlns="http://www.w3.org/2000/svg" viewBox="956 117 2470 520" fill="#000000" role="img" aria-label="HelixDB">
  <path d="M1378.000000,532.000000 C1378.000000,558.809387 1378.000000,585.118774 1378.000000,611.713745 C1340.043457,611.713745 1302.306396,611.713745 1264.171387,611.713745 C1264.171387,548.373840 1264.171387,484.970306 1264.171387,421.283875 C1206.039185,421.283875 1148.302979,421.283875 1090.169189,421.283875 C1090.169189,484.628418 1090.169189,548.031921 1090.169189,611.717224 C1052.036499,611.717224 1014.299377,611.717224 976.280762,611.717224 C976.280762,455.369873 976.280762,298.971375 976.280762,142.286346 C1013.956299,142.286346 1051.693481,142.286346 1089.828613,142.286346 C1089.828613,201.626114 1089.828613,261.029877 1089.828613,320.716309 C1147.961182,320.716309 1205.697388,320.716309 1263.831543,320.716309 C1263.831543,261.371155 1263.831543,201.967407 1263.831543,142.282349 C1301.964355,142.282349 1339.701538,142.282349 1378.000000,142.282349 C1378.000000,271.988037 1378.000000,401.744019 1378.000000,532.000000 z"/>
  <path fill-rule="evenodd" d="M1747.983398,507.742554 C1744.292847,518.588989 1741.388794,529.355774 1736.771729,539.329407 C1728.495361,557.207031 1715.659180,571.714355 1699.929565,583.490234 C1686.329590,593.671692 1671.378174,601.686035 1655.040039,606.262024 C1641.574707,610.033386 1627.753174,612.977295 1613.892944,614.767151 C1600.364258,616.514282 1586.541260,617.383301 1572.927490,616.792480 C1539.390503,615.337036 1508.012451,605.932251 1480.330200,586.581726 C1456.247925,569.747620 1438.310303,547.415222 1426.002197,520.701050 C1418.497681,504.412567 1412.578247,487.544647 1411.096680,469.556702 C1409.919556,455.267395 1408.395874,440.822449 1409.290283,426.588837 C1410.721558,403.810364 1416.333862,381.802704 1425.924194,360.851990 C1434.397095,342.342102 1445.434692,325.688171 1460.027588,311.574371 C1479.469360,292.770874 1502.502075,280.035736 1528.907227,274.170319 C1540.911987,271.503723 1553.284546,270.267700 1565.557739,269.078125 C1595.552368,266.170837 1624.587036,271.133606 1652.330322,282.329620 C1666.811523,288.173584 1680.188354,296.362885 1692.339478,306.619110 C1711.526611,322.814453 1725.680542,342.523376 1735.981567,365.176514 C1742.537842,379.594635 1746.401489,394.784454 1749.130249,410.398956 C1752.359253,428.877655 1750.337646,447.414307 1750.927856,465.913177 C1750.997925,468.104736 1750.096924,470.327271 1749.568481,472.915192 C1672.309204,472.915192 1594.868530,472.915192 1515.784668,472.915192 C1518.874878,480.454193 1520.886108,487.569702 1524.499512,493.748291 C1534.074341,510.120697 1547.986328,521.227783 1566.836304,525.383728 C1587.499023,529.939392 1607.515137,528.958374 1625.700562,516.924255 C1632.083130,512.700684 1637.563721,507.268402 1640.171631,499.576050 C1640.550049,498.459961 1642.408081,497.111603 1643.586182,497.107208 C1678.558228,496.975647 1713.530762,497.000397 1749.249146,497.000397 C1748.802368,500.680115 1748.400146,503.992798 1747.983398,507.742554 M1628.370361,397.000000 C1630.516357,397.000000 1632.662354,397.000000 1634.839478,397.000000 C1634.524292,394.909485 1634.292847,393.164032 1633.994751,391.429993 C1631.639282,377.727600 1625.402466,366.130157 1613.981567,358.095734 C1600.298096,348.469757 1584.923828,345.763733 1568.285767,347.871338 C1551.308228,350.021942 1538.050293,357.595367 1528.660522,371.860931 C1523.644897,379.480957 1519.860107,387.642212 1517.872314,397.000000 C1554.764526,397.000000 1591.081177,397.000000 1628.370361,397.000000 z M1627.884033,397.000000 C1591.081177,397.000000 1554.764526,397.000000 1517.872314,397.000000 C1519.860107,387.642212 1523.644897,379.480957 1528.660522,371.860931 C1538.050293,357.595367 1551.308228,350.021942 1568.285767,347.871338 C1584.923828,345.763733 1600.298096,348.469757 1613.981567,358.095734 C1625.402466,366.130157 1631.639282,377.727600 1633.994751,391.429993 C1634.292847,393.164032 1634.524292,394.909485 1634.839478,397.000000 C1632.662354,397.000000 1630.516357,397.000000 1627.884033,397.000000 z"/>
  <path d="M1883.000000,587.000000 C1883.000000,595.477356 1883.000000,603.454773 1883.000000,611.715088 C1846.707153,611.715088 1810.636108,611.715088 1774.282227,611.715088 C1774.282227,453.704163 1774.282227,295.637085 1774.282227,137.284927 C1810.292847,137.284927 1846.363892,137.284927 1883.000000,137.284927 C1883.000000,286.985687 1883.000000,436.742828 1883.000000,587.000000 z"/>
  <path d="M2024.000000,596.995972 C2024.000000,602.139771 2024.000000,606.784302 2024.000000,611.713501 C1988.043945,611.713501 1952.306519,611.713501 1916.284180,611.713501 C1916.284180,499.374542 1916.284180,386.973633 1916.284180,274.286255 C1951.956543,274.286255 1987.694092,274.286255 2024.000000,274.286255 C2024.000000,381.648743 2024.000000,489.072723 2024.000000,596.995972 z M2015.985840,137.000000 C2020.128418,137.000000 2023.774048,137.000000 2027.708984,137.000000 C2027.708984,170.279068 2027.708984,203.348862 2027.708984,236.709717 C1990.052856,236.709717 1952.316772,236.709717 1914.290039,236.709717 C1914.290039,203.718811 1914.290039,170.649033 1914.290039,137.000000 C1947.970825,137.000000 1981.729858,137.000000 2015.985840,137.000000 z"/>
  <path d="M2169.249512,592.332031 C2165.383789,598.323303 2161.818359,604.066650 2158.015381,609.648193 C2157.263672,610.751648 2155.599365,611.899170 2154.352539,611.903015 C2116.034180,612.021545 2077.715576,611.999817 2038.416870,611.999817 C2075.804932,555.343140 2112.823486,499.246735 2149.948975,442.988068 C2113.353760,387.016571 2076.644043,330.870087 2039.461304,274.000000 C2041.604614,274.000000 2043.016968,274.000000 2044.429321,274.000000 C2079.753418,274.000000 2115.077393,274.033295 2150.401123,273.944550 C2153.663818,273.936340 2155.542236,274.818176 2157.474609,277.768341 C2173.278320,301.898163 2189.369385,325.839996 2205.383301,349.832184 C2208.267822,354.153961 2208.840088,354.131134 2211.796875,349.624420 C2227.608154,325.525482 2243.384521,301.403748 2259.271240,277.354828 C2260.493896,275.503906 2261.747803,273.839661 2264.933838,273.858398 C2302.422363,274.078857 2339.912354,274.000000 2377.942871,274.000000 C2369.977051,286.216187 2362.223389,298.174225 2354.402588,310.088501 C2331.421143,345.099182 2308.393555,380.079773 2285.429199,415.101929 C2280.047363,423.309875 2274.716064,431.558533 2269.678711,439.978180 C2268.783203,441.474976 2268.621826,444.446594 2269.520508,445.825928 C2283.152588,466.751129 2297.026611,487.518311 2310.826904,508.334076 C2333.083008,541.905334 2355.329102,575.483154 2377.556152,609.073669 C2378.064453,609.841614 2378.292725,610.794678 2378.791748,612.000000 C2367.887207,612.000000 2357.283691,612.000000 2346.680420,612.000000 C2319.520996,612.000000 2292.361328,611.973877 2265.201904,612.038879 C2262.370117,612.045654 2260.571533,611.419373 2258.840088,608.744080 C2243.432129,584.936707 2227.793457,561.278564 2212.203125,537.589355 C2209.745117,533.854553 2208.276855,533.898560 2205.707031,537.743469 C2193.617676,555.831909 2181.545410,573.931763 2169.249512,592.332031 z"/>
  <path d="M2415.000000,490.000000 C2390.191895,490.000000 2365.883789,490.000000 2341.288086,490.000000 C2341.288086,459.048828 2341.288086,428.313049 2341.288086,397.288208 C2418.613770,397.288208 2496.011719,397.288208 2573.747559,397.288208 C2573.826660,398.445923 2573.988281,399.714020 2573.988770,400.982147 C2574.003418,428.811615 2573.906738,456.641754 2574.095947,484.469940 C2574.125977,488.869781 2572.887939,490.106445 2568.478516,490.093750 C2517.486084,489.946930 2466.492920,490.000000 2415.000000,490.000000 z"/>
  <path fill-rule="evenodd" d="M3014.001221,358.746704 C3014.334961,361.473297 3014.986572,363.731323 3014.947266,365.977234 C3014.721680,378.898163 3015.005859,391.877319 3013.839844,404.720795 C3012.129883,423.559082 3008.740479,442.182465 3002.959717,460.275543 C2995.102051,484.867615 2983.722656,507.751495 2967.472168,527.795227 C2952.333496,546.467834 2934.488281,562.369812 2913.695312,574.765076 C2897.217529,584.587830 2880.040283,592.939880 2861.520508,597.971069 C2847.093262,601.890503 2832.453613,605.196777 2817.739502,607.834167 C2807.313232,609.703003 2796.624023,610.477478 2786.018799,610.894104 C2767.781494,611.610413 2749.518799,611.888672 2731.265381,611.954712 C2690.932617,612.100464 2650.599121,612.000000 2610.265869,612.000000 C2608.642822,612.000000 2607.020020,612.000000 2605.201660,612.000000 C2605.201660,455.204865 2605.201660,298.799957 2605.201660,142.000000 C2607.180664,142.000000 2608.969971,142.000000 2610.759033,142.000000 C2665.759033,142.000000 2720.762695,141.638794 2775.756348,142.228012 C2791.519531,142.396912 2807.270020,145.172668 2822.996582,147.006439 C2843.432373,149.389313 2862.916992,155.571671 2881.912109,163.120621 C2899.925293,170.279129 2916.726562,179.917587 2932.096680,191.727951 C2949.794922,205.327423 2965.072998,221.317261 2977.536133,239.967377 C2992.268799,262.013916 3002.435059,286.051666 3007.787598,311.874207 C3010.946777,327.114685 3011.999756,342.791779 3014.001221,358.746704 M2719.746094,243.056824 C2719.497314,244.793243 2719.031982,246.529572 2719.031250,248.266098 C2718.995605,334.088501 2719.000000,419.910919 2719.000000,505.733337 C2719.000000,507.356171 2719.000000,508.979034 2719.000000,510.002136 C2739.259766,510.002136 2759.128174,510.216827 2778.989258,509.931091 C2793.680176,509.719727 2807.716309,505.663513 2821.427979,500.799988 C2841.045410,493.841614 2857.863525,482.450989 2871.051270,466.310333 C2889.014648,444.324829 2896.356934,418.185974 2897.756592,390.464294 C2898.476807,376.204987 2897.081543,361.782898 2895.876465,347.499023 C2894.801514,334.761780 2890.960693,322.551270 2885.413330,311.053833 C2882.144531,304.279022 2878.139160,297.800842 2873.926270,291.552429 C2864.716553,277.893280 2852.024414,267.958588 2837.662354,260.376160 C2815.535400,248.694412 2791.616211,243.529556 2766.706787,243.054352 C2751.381104,242.761993 2736.044922,243.002609 2719.746094,243.056824 z M2720.229980,243.030365 C2736.044922,243.002609 2751.381104,242.761993 2766.706787,243.054352 C2791.616211,243.529556 2815.535400,248.694412 2837.662354,260.376160 C2852.024414,267.958588 2864.716553,277.893280 2873.926270,291.552429 C2878.139160,297.800842 2882.144531,304.279022 2885.413330,311.053833 C2890.960693,322.551270 2894.801514,334.761780 2895.876465,347.499023 C2897.081543,361.782898 2898.476807,376.204987 2897.756592,390.464294 C2896.356934,418.185974 2889.014648,444.324829 2871.051270,466.310333 C2857.863525,482.450989 2841.045410,493.841614 2821.427979,500.799988 C2807.716309,505.663513 2793.680176,509.719727 2778.989258,509.931091 C2759.128174,510.216827 2739.259766,510.002136 2719.000000,510.002136 C2719.000000,508.979034 2719.000000,507.356171 2719.000000,505.733337 C2719.000000,419.910919 2718.995605,334.088501 2719.031250,248.266098 C2719.031982,246.529572 2719.497314,244.793243 2720.229980,243.030365 z"/>
  <path fill-rule="evenodd" d="M3406.000000,492.531311 C3405.335693,493.484100 3404.147217,493.907227 3404.082764,494.461212 C3401.439697,517.173157 3392.152100,537.157410 3378.340820,554.990540 C3367.960938,568.392517 3354.586426,578.511597 3339.941162,587.056580 C3320.062012,598.655212 3298.309570,604.655762 3275.983643,608.860962 C3268.618652,610.248169 3261.010742,610.864258 3253.507568,610.915771 C3184.257568,611.391785 3115.006104,611.666931 3045.755127,611.998962 C3043.966309,612.007568 3042.177490,612.000000 3040.199951,612.000000 C3040.199951,455.199493 3040.199951,298.796722 3040.199951,142.000000 C3042.182129,142.000000 3043.971191,142.000000 3045.760498,142.000000 C3108.092529,142.000000 3170.426514,141.711243 3232.755615,142.129745 C3261.147217,142.320374 3288.811035,147.037811 3314.869629,159.321671 C3339.800049,171.073700 3359.490479,188.225861 3371.547852,213.242508 C3376.727783,223.989487 3379.675781,235.491257 3381.125732,247.485687 C3383.589600,267.867859 3381.566406,287.574127 3372.838623,306.120850 C3368.491211,315.358582 3362.785645,324.067505 3356.858154,332.422272 C3350.138184,341.893921 3340.919678,348.899109 3330.794434,354.865631 C3337.937012,358.997192 3345.028076,362.687531 3351.694824,367.029297 C3375.387695,382.459595 3391.669189,403.665070 3400.225830,430.668854 C3402.101074,436.586700 3403.614990,442.619080 3405.647461,448.299377 C3406.000000,462.687561 3406.000000,477.375122 3406.000000,492.531311 M3171.500977,414.000000 C3165.739502,414.000000 3159.978027,414.000000 3154.256836,414.000000 C3154.256836,446.618378 3154.256836,478.669769 3154.256836,511.000000 C3179.625977,511.000000 3204.746338,511.335785 3229.849121,510.815826 C3238.504395,510.636566 3247.279053,508.973022 3255.708252,506.838776 C3268.889404,503.501526 3279.913818,496.548462 3285.688721,483.573151 C3289.340088,475.369873 3289.781006,466.609344 3289.108398,457.616547 C3288.096924,444.083984 3282.444336,433.465942 3271.311768,425.761536 C3259.623779,417.672882 3246.181641,414.668488 3232.439941,414.181396 C3212.482910,413.474030 3192.482422,414.000000 3171.500977,414.000000 M3211.204346,233.002411 C3192.258789,233.002411 3173.313232,233.002411 3154.207764,233.002411 C3154.207764,260.822601 3154.207764,288.222321 3154.207764,316.000000 C3158.362793,316.000000 3162.324707,316.108154 3166.279053,315.981964 C3188.099365,315.285767 3210.043457,317.935883 3231.732178,313.941284 C3243.096191,311.848267 3253.445312,307.731598 3260.217529,297.397797 C3267.038574,286.989258 3268.445557,275.870300 3265.520020,263.958588 C3263.821533,257.043854 3260.766113,250.675476 3255.370605,246.200684 C3244.464600,237.156738 3231.327148,234.177704 3217.409912,233.959778 C3215.653320,233.932297 3213.905518,233.356628 3211.204346,233.002411 z M3172.000732,414.000000 C3192.482422,414.000000 3212.482910,413.474030 3232.439941,414.181396 C3246.181641,414.668488 3259.623779,417.672882 3271.311768,425.761536 C3282.444336,433.465942 3288.096924,444.083984 3289.108398,457.616547 C3289.781006,466.609344 3289.340088,475.369873 3285.688721,483.573151 C3279.913818,496.548462 3268.889404,503.501526 3255.708252,506.838776 C3247.279053,508.973022 3238.504395,510.636566 3229.849121,510.815826 C3204.746338,511.335785 3179.625977,511.000000 3154.256836,511.000000 C3154.256836,478.669769 3154.256836,446.618378 3154.256836,414.000000 C3159.978027,414.000000 3165.739502,414.000000 3172.000732,414.000000 z M3211.678955,233.018677 C3213.905518,233.356628 3215.653320,233.932297 3217.409912,233.959778 C3231.327148,234.177704 3244.464600,237.156738 3255.370605,246.200684 C3260.766113,250.675476 3263.821533,257.043854 3265.520020,263.958588 C3268.445557,275.870300 3267.038574,286.989258 3260.217529,297.397797 C3253.445312,307.731598 3243.096191,311.848267 3231.732178,313.941284 C3210.043457,317.935883 3188.099365,315.285767 3166.279053,315.981964 C3162.324707,316.108154 3158.362793,316.000000 3154.207764,316.000000 C3154.207764,288.222321 3154.207764,260.822601 3154.207764,233.002411 C3173.313232,233.002411 3192.258789,233.002411 3211.678955,233.018677 z"/>
</svg>
