<svg width="206" height="37" viewBox="0 0 206 37" fill="none" xmlns="http://www.w3.org/2000/svg">
<path d="M20.5061 11.3799L0.795156 -0.000164091C-0.809655 2.77953 -0.110982 6.80177 4.047 8.5128L12.38 11.9418L1.24566 8.95835C0.414962 12.0586 2.13087 15.7631 6.58997 16.3396L14.2464 17.3295H4.48614C4.48614 20.5391 7.10236 23.6732 11.5588 23.076L19.0264 22.3939L10.2188 24.754C11.0495 27.8543 14.3878 30.2044 18.5377 28.4742L20.291 27.7432L17.1968 30.8374C17.4151 31.0556 17.6501 31.2561 17.8989 31.4373C25.6775 37.7817 37.0275 37.782 44.8066 31.4382C45.0557 31.2566 45.2911 31.0559 45.5097 30.8374L42.4156 27.7433L44.1688 28.4742C48.3188 30.2045 51.657 27.8544 52.4878 24.754L43.6801 22.3939L51.1478 23.0761C55.6042 23.6732 58.2203 20.5392 58.2203 17.3296H48.46L56.1166 16.3397C60.5758 15.7631 62.2916 12.0587 61.4609 8.95835L50.3266 11.9419H50.3265L58.6595 8.51289C62.8175 6.80186 63.5162 2.77954 61.9113 -7.14773e-05L42.2005 11.3801C41.138 18.1 37.1964 21.194 31.3533 24.811C25.8059 21.3769 21.6419 18.5617 20.5061 11.3799Z" fill="black"/>
<path d="M23.8946 12.4561C27.0755 13.3713 31.3441 17.9646 31.3534 20.1279C31.3626 17.9646 35.6313 13.3713 38.8123 12.4561C43.5397 11.096 44.2223 7.67294 44.9009 3.68837C42.1154 7.03464 39.4778 8.44599 37.0769 8.83337C33.331 9.43762 31.4837 12.0704 31.3534 15.8354C31.2231 12.0704 29.3759 9.43762 25.6298 8.83337C23.2289 8.44599 20.5914 7.03464 17.8059 3.68837C18.4844 7.67294 19.1671 11.096 23.8946 12.4561Z" fill="black"/>
<path d="M29.0969 17.2604C29.0797 17.2752 29.0624 17.2897 29.0448 17.3041C27.8382 18.2803 25.8799 17.8601 24.6704 16.3655C23.97 15.4999 23.6745 14.4639 23.7841 13.5556C23.8209 13.5665 23.8571 13.5777 23.8944 13.5885C25.5895 14.0761 27.5932 15.6081 29.0969 17.2604ZM33.6097 17.2604C33.6267 17.2752 33.6441 17.2897 33.6618 17.3041C34.8683 18.2803 36.8267 17.8601 38.0362 16.3655C38.7364 15.4999 39.0319 14.4639 38.9224 13.5556C38.8856 13.5665 38.8493 13.5777 38.8121 13.5885C37.1171 14.0761 35.1133 15.6081 33.6097 17.2604ZM12.38 11.9418C16.8984 18.4272 23.6568 23.0112 31.3533 24.811C25.8058 21.3769 21.6418 18.5617 20.5061 11.38L0.795156 -0.000138808C-0.809655 2.77956 -0.110982 6.80179 4.047 8.51282L12.38 11.9418ZM50.3265 11.9418C45.808 18.4272 39.0497 23.0112 31.3533 24.811C36.9007 21.3769 41.0648 18.5617 42.2005 11.38L61.9113 -0.000138808C63.5162 2.77956 62.8175 6.80179 58.6595 8.51282L50.3265 11.9418Z" fill="black"/>
<path d="M14.2464 17.3295C16.4565 19.0734 18.8588 20.5586 21.4066 21.7562C24.5612 23.2391 27.9101 24.2676 31.3532 24.811C23.6568 23.0112 16.8984 18.4272 12.38 11.9418L1.24561 8.95828C0.414878 12.0586 2.13082 15.7631 6.58992 16.3396L14.2464 17.3295ZM48.46 17.3295C46.2499 19.0734 43.8476 20.5586 41.2998 21.7562C38.1452 23.2391 34.7964 24.2676 31.3532 24.811C39.0497 23.0112 45.808 18.4272 50.3265 11.9418L61.4609 8.95828C62.2916 12.0586 60.5756 15.7631 56.1165 16.3396L48.46 17.3295Z" fill="black"/>
<path d="M19.0266 22.394C22.8099 24.3905 27.0964 25.231 31.3535 24.8111C27.9103 24.2677 24.5615 23.2392 21.4068 21.7563C18.8591 20.5587 16.4567 19.0734 14.2466 17.3296H4.48633C4.48633 20.5392 7.10255 23.6732 11.559 23.076L19.0266 22.394ZM43.6803 22.394C39.8971 24.3905 35.6105 25.231 31.3535 24.8111C34.7966 24.2677 38.1454 23.2392 41.3001 21.7563C43.8478 20.5587 46.2502 19.0735 48.4602 17.3296H58.2205C58.2205 20.5392 55.6044 23.6732 51.148 23.076L43.6803 22.394Z" fill="black"/>
<path d="M20.291 27.743C24.2226 29.293 28.7055 28.1048 31.3533 24.8108C27.0962 25.2307 22.8097 24.3902 19.0264 22.3938L10.2188 24.7538C11.0495 27.8541 14.3878 30.2042 18.5377 28.474L20.291 27.743ZM42.4155 27.743C38.4838 29.293 34.001 28.1048 31.3533 24.8108C35.6103 25.2307 39.8968 24.3902 43.6801 22.3938L52.4877 24.7538C51.657 27.8541 48.3187 30.2042 44.1687 28.474L42.4155 27.743Z" fill="black"/>
<path d="M42.4157 27.7432C38.484 29.2931 34.0012 28.105 31.3535 24.811C28.7057 28.105 24.2229 29.2931 20.2912 27.7432L17.197 30.8373C17.4153 31.0556 17.6503 31.2561 17.8991 31.4373C25.6777 37.7817 37.0277 37.782 44.8068 31.4382C45.056 31.2566 45.2913 31.0559 45.5099 30.8374L42.4157 27.7432Z" fill="black"/>
<path d="M71.481 6.87106H77.5233L81.6966 18.6998H81.7479L85.9468 6.87106H91.9636V24.9981H87.9695V11.0957H87.9183L83.156 24.9983H80.1092L75.5262 11.0957H75.475V24.9983H71.481V6.87106ZM106.941 22.8475C106.327 23.6326 105.55 24.2386 104.612 24.6653C103.673 25.092 102.7 25.3054 101.693 25.3054C100.737 25.3054 99.8323 25.1518 98.9788 24.8446C98.1424 24.5373 97.4085 24.1021 96.7769 23.5388C96.1625 22.9584 95.676 22.2672 95.3176 21.4649C94.9591 20.6627 94.7799 19.7666 94.7799 18.7766C94.7799 17.7866 94.9591 16.8905 95.3176 16.0882C95.676 15.286 96.1625 14.6032 96.7769 14.04C97.4085 13.4597 98.1425 13.0159 98.9788 12.7086C99.8323 12.4014 100.737 12.2477 101.693 12.2477C102.58 12.2477 103.383 12.4014 104.1 12.7086C104.833 13.0158 105.448 13.4596 105.943 14.04C106.455 14.6032 106.848 15.286 107.121 16.0882C107.394 16.8905 107.53 17.7866 107.53 18.7766V19.9799H98.6204C98.774 20.7139 99.1069 21.3028 99.6189 21.7465C100.131 22.1733 100.763 22.3867 101.514 22.3867C102.145 22.3867 102.674 22.2501 103.101 21.977C103.545 21.6868 103.929 21.3198 104.253 20.876L106.941 22.8475ZM103.69 17.3684C103.707 16.7198 103.494 16.165 103.05 15.7042C102.606 15.2433 102.034 15.0129 101.334 15.0129C100.908 15.0129 100.532 15.0812 100.208 15.2177C99.8835 15.3543 99.6019 15.5335 99.3629 15.7554C99.141 15.9602 98.9618 16.2077 98.8253 16.4979C98.7058 16.771 98.6375 17.0611 98.6204 17.3684L103.69 17.3684ZM109.86 12.555H113.701V14.552H113.752C114.162 13.7839 114.648 13.2121 115.211 12.8366C115.775 12.444 116.483 12.2477 117.336 12.2477C117.558 12.2477 117.78 12.2563 118.002 12.2733C118.224 12.2904 118.429 12.3246 118.617 12.3758V15.8835C118.343 15.7981 118.07 15.7383 117.797 15.7042C117.541 15.653 117.268 15.6274 116.978 15.6274C116.244 15.6274 115.664 15.7298 115.237 15.9346C114.81 16.1394 114.477 16.4296 114.238 16.8051C114.017 17.1636 113.871 17.5988 113.803 18.1109C113.735 18.623 113.701 19.1862 113.701 19.8007V24.9982H109.86V12.555ZM120.281 5.64209H124.121V17.4708L128.371 12.555H133.082L128.141 18.1621L133.21 24.9982H128.371L124.172 18.6998H124.121V24.9982H120.281V5.64209ZM134.567 5.64209H138.408V24.9982H134.567V5.64209ZM152.951 22.8475C152.336 23.6326 151.559 24.2386 150.621 24.6653C149.682 25.092 148.709 25.3054 147.702 25.3054C146.746 25.3054 145.841 25.1518 144.988 24.8446C144.152 24.5373 143.418 24.1021 142.786 23.5388C142.172 22.9584 141.685 22.2672 141.327 21.4649C140.968 20.6627 140.789 19.7666 140.789 18.7766C140.789 17.7866 140.968 16.8905 141.327 16.0882C141.685 15.286 142.172 14.6032 142.786 14.04C143.418 13.4597 144.152 13.0159 144.988 12.7086C145.841 12.4014 146.746 12.2477 147.702 12.2477C148.589 12.2477 149.392 12.4014 150.109 12.7086C150.843 13.0158 151.457 13.4596 151.952 14.04C152.464 14.6032 152.857 15.286 153.13 16.0882C153.403 16.8905 153.539 17.7866 153.539 18.7766V19.9799H144.629C144.783 20.7139 145.116 21.3028 145.628 21.7465C146.14 22.1733 146.772 22.3867 147.523 22.3867C148.154 22.3867 148.683 22.2501 149.11 21.977C149.554 21.6868 149.938 21.3198 150.262 20.876L152.951 22.8475ZM149.699 17.3684C149.716 16.7198 149.503 16.165 149.059 15.7042C148.615 15.2433 148.043 15.0129 147.343 15.0129C146.917 15.0129 146.541 15.0812 146.217 15.2177C145.893 15.3543 145.611 15.5335 145.372 15.7554C145.15 15.9602 144.971 16.2077 144.834 16.4979C144.715 16.771 144.647 17.0611 144.629 17.3684L149.699 17.3684ZM155.869 12.555H159.556V14.2448H159.607C159.727 14.0058 159.898 13.7669 160.119 13.5279C160.341 13.2889 160.606 13.0755 160.913 12.8878C161.22 12.7 161.57 12.5464 161.963 12.427C162.355 12.3075 162.782 12.2477 163.243 12.2477C164.114 12.2477 164.882 12.427 165.547 12.7854C166.23 13.1439 166.742 13.7071 167.084 14.4752C167.527 13.673 168.065 13.1012 168.696 12.7598C169.328 12.4184 170.105 12.2477 171.026 12.2477C171.863 12.2477 172.563 12.3928 173.126 12.683C173.706 12.9561 174.159 13.3401 174.483 13.8351C174.824 14.3131 175.063 14.8849 175.2 15.5506C175.353 16.1992 175.43 16.899 175.43 17.65V24.9982H171.59V17.7525C171.59 17.1721 171.462 16.6771 171.206 16.2675C170.967 15.8407 170.531 15.6273 169.9 15.6273C169.456 15.6273 169.081 15.7041 168.773 15.8578C168.483 15.9943 168.244 16.1906 168.056 16.4467C167.886 16.7027 167.758 17.0014 167.672 17.3428C167.604 17.6842 167.57 18.0426 167.57 18.4182V24.9982H163.729V18.4182C163.729 18.1962 163.721 17.9231 163.704 17.5988C163.687 17.2745 163.627 16.9673 163.525 16.6771C163.422 16.387 163.252 16.1395 163.013 15.9347C162.791 15.7298 162.458 15.6274 162.014 15.6274C161.519 15.6274 161.118 15.7213 160.811 15.909C160.503 16.0797 160.265 16.3187 160.094 16.6259C159.94 16.9161 159.838 17.2489 159.787 17.6244C159.735 17.9999 159.71 18.3925 159.71 18.8022V24.9982H155.869L155.869 12.555ZM185.953 23.4363H185.902C185.475 24.102 184.903 24.58 184.187 24.8702C183.487 25.1603 182.744 25.3054 181.959 25.3054C181.379 25.3054 180.815 25.2201 180.269 25.0493C179.74 24.8957 179.271 24.6568 178.861 24.3325C178.451 24.0082 178.127 23.6071 177.888 23.1291C177.649 22.6512 177.53 22.0964 177.53 21.4649C177.53 20.748 177.658 20.1421 177.914 19.6471C178.187 19.1521 178.545 18.7425 178.989 18.4182C179.45 18.0938 179.971 17.8463 180.551 17.6756C181.131 17.4879 181.729 17.3513 182.343 17.266C182.975 17.1806 183.598 17.1294 184.212 17.1124C184.844 17.0953 185.424 17.0868 185.953 17.0868C185.953 16.404 185.706 15.8663 185.211 15.4737C184.733 15.0641 184.161 14.8593 183.495 14.8593C182.864 14.8593 182.283 14.9959 181.754 15.2689C181.242 15.525 180.781 15.8834 180.372 16.3442L178.323 14.2448C179.04 13.5791 179.877 13.0841 180.832 12.7598C181.788 12.4184 182.778 12.2477 183.802 12.2477C184.929 12.2477 185.851 12.3928 186.568 12.683C187.302 12.9561 187.882 13.3657 188.309 13.912C188.752 14.4581 189.06 15.1324 189.23 15.9346C189.401 16.7198 189.486 17.633 189.486 18.6741V24.9982H185.953V23.4363ZM185.006 19.5447C184.716 19.5447 184.349 19.5617 183.905 19.5958C183.478 19.6129 183.06 19.6812 182.65 19.8007C182.258 19.9202 181.916 20.0994 181.626 20.3384C181.353 20.5773 181.217 20.9102 181.217 21.3369C181.217 21.7978 181.413 22.1391 181.805 22.361C182.198 22.5829 182.608 22.6939 183.034 22.6939C183.41 22.6939 183.768 22.6427 184.11 22.5402C184.468 22.4378 184.784 22.2927 185.057 22.105C185.33 21.9172 185.543 21.6783 185.697 21.3881C185.868 21.0979 185.953 20.7566 185.953 20.364V19.5447H185.006ZM192.252 12.555H195.785V14.1936H195.836C195.99 13.9717 196.186 13.7498 196.425 13.5279C196.681 13.2889 196.971 13.0755 197.295 12.8878C197.637 12.7 198.004 12.5464 198.396 12.427C198.789 12.3075 199.207 12.2477 199.651 12.2477C200.573 12.2477 201.409 12.4099 202.16 12.7342C202.911 13.0414 203.551 13.4852 204.08 14.0656C204.626 14.6288 205.045 15.3031 205.335 16.0882C205.625 16.8734 205.77 17.7354 205.77 18.6741C205.77 19.5447 205.634 20.3811 205.36 21.1833C205.104 21.9684 204.729 22.6683 204.234 23.2828C203.756 23.8972 203.167 24.3922 202.467 24.7677C201.767 25.1262 200.974 25.3054 200.086 25.3054C199.284 25.3054 198.533 25.1859 197.833 24.947C197.15 24.6909 196.587 24.2642 196.143 23.6668H196.092V30.8357H192.252V12.555ZM195.785 18.7766C195.785 19.7153 196.049 20.4749 196.579 21.0553C197.125 21.6356 197.884 21.9258 198.857 21.9258C199.83 21.9258 200.581 21.6356 201.11 21.0553C201.656 20.475 201.93 19.7154 201.93 18.7766C201.93 17.8378 201.656 17.0782 201.11 16.4979C200.581 15.9175 199.83 15.6274 198.857 15.6274C197.884 15.6274 197.125 15.9175 196.579 16.4979C196.049 17.0782 195.785 17.8378 195.785 18.7766Z" fill="black"/>
</svg>
