<svg viewBox="0 0 385 76" fill="none" xmlns="http://www.w3.org/2000/svg">
<g>
<path fill-rule="evenodd" clip-rule="evenodd" d="M22.4629 60.4768C18.4311 60.4768 14.6873 59.4209 11.1354 57.405C7.67961 55.3891 4.99175 52.7012 2.97585 49.2454C1.24794 46.1736 0.287985 42.9097 0 39.4539H9.8875C10.0795 41.6618 10.6555 43.6777 11.8074 45.5016C13.0553 47.3255 14.6873 48.8614 16.7031 49.8214C18.5271 50.6853 20.447 51.1653 22.4629 51.1653C24.4788 51.1653 26.4946 50.6853 28.3186 49.8214C30.3345 48.8614 31.9664 47.3255 33.2143 45.5016C34.7502 43.2937 35.2302 40.6058 35.2302 37.918C35.2302 35.2301 34.7502 32.5423 33.2143 30.3344C31.9664 28.4145 30.4304 26.8785 28.3186 25.9186C26.8786 25.2466 25.3427 24.7667 23.8068 24.5747V15.3591C27.3586 15.5511 30.7184 16.5111 33.8863 18.335C37.3421 20.3509 40.126 23.0387 42.0459 26.4946C44.1577 30.0464 45.1177 33.8862 45.1177 37.918C45.1177 41.9498 44.1577 45.6936 42.0459 49.2454C40.126 52.7012 37.3421 55.3891 33.8863 57.405C30.3345 59.4209 26.5906 60.4768 22.4629 60.4768Z" fill="black"/>
<path fill-rule="evenodd" clip-rule="evenodd" d="M21.8869 15.2632C21.8869 19.391 20.8309 23.2308 18.815 26.6866C16.7991 30.1424 14.1113 32.9263 10.6555 34.9422C7.29563 36.8621 3.74381 37.822 0 37.918V28.7025C1.72791 28.6065 3.45582 28.1265 5.08774 27.3586C7.10364 26.3986 8.73555 24.8627 9.98349 22.9428C11.4234 20.6389 11.9994 17.951 11.9994 15.2632H21.8869Z" fill="black"/>
</g>
<g>
<path fill-rule="evenodd" clip-rule="evenodd" d="M54.7172 75.9321V27.3586H49.5335V16.8951H60.2849V23.6148H63.2608C64.7007 21.2149 66.6206 19.295 69.1165 17.9511C71.6124 16.7031 74.5882 16.0312 78.14 16.0312C82.4598 16.0312 86.1076 16.8951 89.0835 18.719C92.0593 20.543 94.3632 23.0388 95.8991 26.3027C97.435 29.6625 98.203 33.5023 98.203 37.9181C98.203 42.4298 97.435 46.2696 95.9951 49.5335C94.4592 52.7973 92.2513 55.3892 89.3714 57.2131C86.4916 58.941 83.0358 59.9009 79.004 59.9009C75.8361 59.9009 73.1483 59.325 70.8444 58.077C68.5405 56.8291 66.7166 55.1012 65.4687 52.8933H65.1807V75.9321H54.7172ZM356.046 59.805C351.15 59.805 347.31 58.653 344.526 56.2531C341.647 53.8533 340.303 50.6854 340.303 46.7496C340.303 42.6218 341.743 39.454 344.526 37.1501C347.406 34.9422 351.438 33.7903 356.814 33.7903H369.677V32.1584C369.677 26.9746 366.701 24.3828 360.654 24.3828C355.662 24.3828 352.59 26.2067 351.438 29.8545H340.975C341.839 25.3427 343.95 21.8869 347.406 19.583C350.766 17.1831 355.182 16.0312 360.654 16.0312C366.893 16.0312 371.597 17.3751 374.861 20.159C378.029 22.9428 379.661 27.0706 379.661 32.3504V48.5735H384.652V59.037H373.901V52.3173H370.925C369.485 54.7172 367.565 56.5411 365.069 57.885C362.67 59.133 359.598 59.805 356.046 59.805ZM357.582 51.7414C359.886 51.7414 361.902 51.2614 363.821 50.3974C365.645 49.5335 367.085 48.3815 368.045 46.9416C369.101 45.4057 369.677 43.7738 369.677 41.9499V40.9899H357.39C352.686 40.9899 350.286 42.7178 350.286 46.2696C350.286 47.9976 350.958 49.3415 352.206 50.3014C353.454 51.2614 355.278 51.7414 357.582 51.7414ZM323.312 59.037C320.528 59.037 318.416 58.365 316.88 56.9251C315.344 55.4852 314.576 53.3733 314.576 50.4934V25.0547H307.088V16.8951H314.672V4.22378H324.943V16.8951H335.119V25.0547H325.039V50.7814H336.079V59.037H323.312ZM274.834 59.805C269.938 59.805 266.098 58.653 263.315 56.2531C260.435 53.8533 259.091 50.6854 259.091 46.7496C259.091 42.6218 260.531 39.454 263.315 37.1501C266.194 34.9422 270.226 33.7903 275.602 33.7903H288.465V32.1584C288.465 26.9746 285.489 24.3828 279.442 24.3828C274.45 24.3828 271.378 26.2067 270.226 29.8545H259.763C260.627 25.3427 262.739 21.8869 266.194 19.583C269.554 17.1831 273.97 16.0312 279.442 16.0312C285.681 16.0312 290.385 17.3751 293.649 20.159C296.817 22.9428 298.449 27.0706 298.449 32.3504V48.5735H303.441V59.037H292.689V52.3173H289.713C288.273 54.7172 286.353 56.5411 283.858 57.885C281.458 59.133 278.386 59.805 274.834 59.805ZM276.37 51.7414C278.674 51.7414 280.786 51.2614 282.61 50.3974C284.434 49.5335 285.873 48.3815 286.929 46.9416C287.985 45.4057 288.465 43.7738 288.465 41.9499V40.9899H276.178C271.474 40.9899 269.074 42.7178 269.074 46.2696C269.074 47.9976 269.746 49.3415 270.994 50.3014C272.338 51.2614 274.066 51.7414 276.37 51.7414ZM225.589 59.9009C221.269 59.9009 217.621 58.941 214.645 57.2131C211.669 55.3892 209.365 52.7973 207.829 49.5335C206.197 46.1736 205.43 42.3338 205.43 37.9181C205.43 33.5023 206.197 29.6625 207.733 26.3027C209.269 23.0388 211.477 20.543 214.357 18.719C217.237 16.8951 220.693 16.0312 224.725 16.0312C227.892 16.0312 230.676 16.6072 232.98 17.7591C235.188 19.007 237.012 20.7349 238.164 22.9428H238.452V0H249.011V48.5735H254.195V59.037H243.444V52.3173H240.564C239.028 54.7172 237.012 56.6371 234.516 57.885C232.02 59.229 229.14 59.9009 225.589 59.9009ZM227.412 50.7814C230.868 50.7814 233.556 49.8215 235.476 47.9976C237.492 46.0777 238.452 43.4858 238.452 40.2219V35.7102C238.452 32.4463 237.492 29.8545 235.476 27.9346C233.556 26.0147 230.868 25.0547 227.412 25.0547C223.669 25.0547 220.885 26.2067 218.869 28.5105C216.949 30.7184 215.893 33.8863 215.893 37.9181C215.893 41.9499 216.949 45.1177 218.869 47.4216C220.885 49.6295 223.669 50.7814 227.412 50.7814ZM156.28 59.037V27.3586H151V16.8951H161.752V23.6148H164.728C166.36 21.2149 168.375 19.391 170.871 18.0471C173.367 16.7031 176.343 16.1272 179.991 16.1272C185.751 16.1272 190.262 17.6631 193.43 20.8309C196.598 24.0948 198.134 28.3186 198.134 33.5983V59.037H187.67V35.5182C187.67 32.2544 186.806 29.6625 184.983 27.9346C183.255 26.2067 180.663 25.3427 177.207 25.3427C173.847 25.3427 171.255 26.2067 169.431 27.9346C167.607 29.6625 166.744 32.2544 166.744 35.5182V59.037H156.28ZM125.658 59.9009C121.146 59.9009 117.21 58.941 113.85 57.2131C110.49 55.3892 107.899 52.7973 106.171 49.5335C104.347 46.1736 103.387 42.3338 103.387 37.8221C103.387 33.3103 104.347 29.4705 106.075 26.2067C107.899 22.9428 110.394 20.447 113.658 18.6231C117.018 16.8951 120.858 16.0312 125.274 16.0312C129.497 16.0312 133.241 16.7991 136.313 18.5271C139.385 20.159 141.785 22.5588 143.513 25.7267C145.241 28.7985 146.009 32.5423 146.009 36.7661V40.4139H113.562C113.946 43.9658 115.194 46.6536 117.21 48.5735C119.322 50.4934 122.106 51.4534 125.562 51.4534C128.153 51.4534 130.265 50.9734 131.897 50.0135C133.529 49.0535 134.585 47.6136 135.257 45.6937H145.817C144.857 50.1094 142.553 53.6613 139.001 56.1571C135.545 58.653 131.033 59.9009 125.658 59.9009ZM113.754 33.3103H136.025C135.545 30.4304 134.393 28.2226 132.569 26.6866C130.745 25.1507 128.345 24.3828 125.274 24.3828C122.202 24.3828 119.706 25.1507 117.69 26.6866C115.77 28.2226 114.426 30.4304 113.754 33.3103ZM76.2201 50.7814C80.0599 50.7814 82.8438 49.6295 84.8597 47.4216C86.7796 45.1177 87.7395 41.9499 87.7395 37.9181C87.7395 33.8863 86.7796 30.7184 84.8597 28.5105C82.8438 26.2067 80.0599 25.0547 76.2201 25.0547C72.8603 25.0547 70.1724 26.0147 68.2525 27.9346C66.2366 29.8545 65.1807 32.4463 65.1807 35.7102V40.2219C65.1807 43.4858 66.2366 46.0777 68.2525 47.9976C70.1724 49.8215 72.8603 50.7814 76.2201 50.7814Z" fill="black"/>
</g>
</svg>
