<svg width="549" height="106" viewBox="0 0 549 106" fill="none" xmlns="http://www.w3.org/2000/svg">
<g clip-path="url(#clip0_208_139)">
<path d="M20 60.2427H47.1775C48.2821 60.2427 49.1775 61.1381 49.1775 62.2427V62.9487C49.1775 64.0533 48.2821 64.9487 47.1775 64.9487H20V60.2427Z" fill="black"/>
<path d="M20 51.0986H65.0606C66.1651 51.0986 67.0606 51.9941 67.0606 53.0986V53.8047C67.0606 54.9093 66.1651 55.8047 65.0606 55.8047H20V51.0986Z" fill="black"/>
<path d="M20 69.387H36.8242C37.9288 69.387 38.8242 70.2824 38.8242 71.387V72.093C38.8242 73.1976 37.9288 74.093 36.8242 74.093H20V69.387Z" fill="black"/>
<path d="M56.0812 29C64.665 29 71.5831 30.4117 76.8351 33.2354C82.087 36.059 86.1807 39.8148 89.1173 44.502C92.0538 49.1326 93.5225 54.6383 93.5226 61.0195C93.5226 67.4009 92.0264 72.9643 89.0333 77.708C86.0403 82.3952 81.9171 86.1225 76.6652 88.8896C71.4133 91.6567 64.5518 93.04 56.0812 93.04C51.3376 93.04 46.9048 92.2207 42.7823 90.583C38.7163 88.9453 35.1296 86.6583 32.0236 83.7217C28.9742 80.7852 26.574 77.3966 24.8234 73.5566C24.2525 72.2436 23.781 70.8977 23.4025 69.5205H27.5372C28.1409 71.451 28.9575 73.3333 29.9913 75.166C32.4761 79.5144 35.8644 82.9312 40.1564 85.416C44.5046 87.9007 49.135 89.1435 54.048 89.1436C57.8881 89.1436 61.5024 88.4372 64.8907 87.0254C68.279 85.5572 71.2441 83.5529 73.7853 81.0117C76.383 78.414 78.4166 75.4206 79.8849 72.0322C81.3531 68.6439 82.087 65.0011 82.087 61.1045C82.087 57.2644 81.3532 53.65 79.8849 50.2617C78.4166 46.8734 76.383 43.9084 73.7853 41.3672C71.2441 38.7696 68.279 36.7368 64.8907 35.2686C61.5024 33.8003 57.8881 33.0664 54.048 33.0664C50.1516 33.0664 46.5094 33.8289 43.1212 35.3535C39.733 36.8218 36.7679 38.8545 34.2267 41.4521C31.7419 44.0499 29.7928 47.0433 28.381 50.4316C27.6712 52.1352 27.1401 53.8817 26.7872 55.6709H22.7179C23.1401 53.1373 23.8685 50.7129 24.9083 48.3984C26.659 44.5019 29.059 41.1135 32.1085 38.2334C35.2144 35.2969 38.8005 33.0383 42.8663 31.457C46.9888 29.8193 51.394 29 56.0812 29ZM26.2726 60.377C26.2666 60.6187 26.2638 60.8613 26.2638 61.1045C26.2638 62.3591 26.3427 63.5959 26.5011 64.8145H22.4972C22.3559 63.5731 22.2823 62.308 22.2823 61.0195C22.2824 60.8046 22.2862 60.5905 22.2902 60.377H26.2726Z" fill="black"/>
<path d="M118.49 39.47H125.69V49.28H125.87C127.73 45.5 130.01 42.71 132.71 40.91C135.41 39.11 138.83 38.27 142.97 38.39V46.49C139.91 46.49 137.3 46.91 135.14 47.75C132.98 48.59 131.24 49.82 129.92 51.44C128.6 53.06 127.64 55.04 127.04 57.38C126.44 59.66 126.14 62.3 126.14 65.3V86H118.49V39.47ZM179.459 58.28C179.339 56.48 178.919 54.77 178.199 53.15C177.539 51.53 176.609 50.15 175.409 49.01C174.269 47.81 172.889 46.88 171.269 46.22C169.709 45.5 167.969 45.14 166.049 45.14C164.069 45.14 162.269 45.5 160.649 46.22C159.089 46.88 157.739 47.81 156.599 49.01C155.459 50.21 154.559 51.62 153.899 53.24C153.239 54.8 152.849 56.48 152.729 58.28H179.459ZM186.839 71.24C185.819 76.46 183.569 80.39 180.089 83.03C176.609 85.67 172.229 86.99 166.949 86.99C163.229 86.99 159.989 86.39 157.229 85.19C154.529 83.99 152.249 82.31 150.389 80.15C148.529 77.99 147.119 75.41 146.159 72.41C145.259 69.41 144.749 66.14 144.629 62.6C144.629 59.06 145.169 55.82 146.249 52.88C147.329 49.94 148.829 47.39 150.749 45.23C152.729 43.07 155.039 41.39 157.679 40.19C160.379 38.99 163.319 38.39 166.499 38.39C170.639 38.39 174.059 39.26 176.759 41C179.519 42.68 181.709 44.84 183.329 47.48C185.009 50.12 186.149 53 186.749 56.12C187.409 59.24 187.679 62.21 187.559 65.03H152.729C152.669 67.07 152.909 69.02 153.449 70.88C153.989 72.68 154.859 74.3 156.059 75.74C157.259 77.12 158.789 78.23 160.649 79.07C162.509 79.91 164.699 80.33 167.219 80.33C170.459 80.33 173.099 79.58 175.139 78.08C177.239 76.58 178.619 74.3 179.279 71.24H186.839ZM200.169 71.33C200.229 73.01 200.619 74.45 201.339 75.65C202.059 76.79 202.989 77.72 204.129 78.44C205.329 79.1 206.649 79.58 208.089 79.88C209.589 80.18 211.119 80.33 212.679 80.33C213.879 80.33 215.139 80.24 216.459 80.06C217.779 79.88 218.979 79.55 220.059 79.07C221.199 78.59 222.129 77.9 222.849 77C223.569 76.04 223.929 74.84 223.929 73.4C223.929 71.42 223.179 69.92 221.679 68.9C220.179 67.88 218.289 67.07 216.009 66.47C213.789 65.81 211.359 65.24 208.719 64.76C206.079 64.22 203.619 63.5 201.339 62.6C199.119 61.64 197.259 60.32 195.759 58.64C194.259 56.96 193.509 54.62 193.509 51.62C193.509 49.28 194.019 47.27 195.039 45.59C196.119 43.91 197.469 42.56 199.089 41.54C200.769 40.46 202.629 39.68 204.669 39.2C206.769 38.66 208.839 38.39 210.879 38.39C213.519 38.39 215.949 38.63 218.169 39.11C220.389 39.53 222.339 40.31 224.019 41.45C225.759 42.53 227.139 44.03 228.159 45.95C229.179 47.81 229.779 50.15 229.959 52.97H222.309C222.189 51.47 221.799 50.24 221.139 49.28C220.479 48.26 219.639 47.45 218.619 46.85C217.599 46.25 216.459 45.83 215.199 45.59C213.999 45.29 212.769 45.14 211.509 45.14C210.369 45.14 209.199 45.23 207.999 45.41C206.859 45.59 205.809 45.92 204.849 46.4C203.889 46.82 203.109 47.42 202.509 48.2C201.909 48.92 201.609 49.88 201.609 51.08C201.609 52.4 202.059 53.51 202.959 54.41C203.919 55.25 205.119 55.97 206.559 56.57C207.999 57.11 209.619 57.59 211.419 58.01C213.219 58.37 215.019 58.76 216.819 59.18C218.739 59.6 220.599 60.11 222.399 60.71C224.259 61.31 225.879 62.12 227.259 63.14C228.699 64.1 229.839 65.33 230.679 66.83C231.579 68.33 232.029 70.19 232.029 72.41C232.029 75.23 231.429 77.57 230.229 79.43C229.089 81.29 227.559 82.79 225.639 83.93C223.779 85.07 221.649 85.85 219.249 86.27C216.909 86.75 214.569 86.99 212.229 86.99C209.649 86.99 207.189 86.72 204.849 86.18C202.509 85.64 200.439 84.77 198.639 83.57C196.839 82.31 195.399 80.69 194.319 78.71C193.239 76.67 192.639 74.21 192.519 71.33H200.169ZM240.759 39.47H248.409V45.77H248.589C249.849 43.19 251.829 41.33 254.529 40.19C257.229 38.99 260.199 38.39 263.439 38.39C267.039 38.39 270.159 39.05 272.799 40.37C275.499 41.69 277.719 43.49 279.459 45.77C281.259 47.99 282.609 50.57 283.509 53.51C284.409 56.45 284.859 59.57 284.859 62.87C284.859 66.17 284.409 69.29 283.509 72.23C282.669 75.17 281.349 77.75 279.549 79.97C277.809 82.13 275.589 83.84 272.889 85.1C270.249 86.36 267.159 86.99 263.619 86.99C262.479 86.99 261.189 86.87 259.749 86.63C258.369 86.39 256.989 86 255.609 85.46C254.229 84.92 252.909 84.2 251.649 83.3C250.449 82.34 249.429 81.17 248.589 79.79H248.409V103.73H240.759V39.47ZM276.759 62.33C276.759 60.17 276.459 58.07 275.859 56.03C275.319 53.93 274.449 52.07 273.249 50.45C272.109 48.83 270.609 47.54 268.749 46.58C266.949 45.62 264.819 45.14 262.359 45.14C259.779 45.14 257.589 45.65 255.789 46.67C253.989 47.69 252.519 49.04 251.379 50.72C250.239 52.34 249.399 54.2 248.859 56.3C248.379 58.4 248.139 60.53 248.139 62.69C248.139 64.97 248.409 67.19 248.949 69.35C249.489 71.45 250.329 73.31 251.469 74.93C252.669 76.55 254.199 77.87 256.059 78.89C257.919 79.85 260.169 80.33 262.809 80.33C265.449 80.33 267.639 79.82 269.379 78.8C271.179 77.78 272.619 76.43 273.699 74.75C274.779 73.07 275.559 71.15 276.039 68.99C276.519 66.83 276.759 64.61 276.759 62.33ZM299.418 62.78C299.418 65.6 299.778 68.12 300.498 70.34C301.278 72.5 302.328 74.33 303.648 75.83C304.968 77.27 306.498 78.38 308.238 79.16C310.038 79.94 311.928 80.33 313.908 80.33C315.888 80.33 317.748 79.94 319.488 79.16C321.288 78.38 322.848 77.27 324.168 75.83C325.488 74.33 326.508 72.5 327.228 70.34C328.008 68.12 328.398 65.6 328.398 62.78C328.398 59.96 328.008 57.47 327.228 55.31C326.508 53.09 325.488 51.23 324.168 49.73C322.848 48.23 321.288 47.09 319.488 46.31C317.748 45.53 315.888 45.14 313.908 45.14C311.928 45.14 310.038 45.53 308.238 46.31C306.498 47.09 304.968 48.23 303.648 49.73C302.328 51.23 301.278 53.09 300.498 55.31C299.778 57.47 299.418 59.96 299.418 62.78ZM291.318 62.78C291.318 59.36 291.798 56.18 292.758 53.24C293.718 50.24 295.158 47.66 297.078 45.5C298.998 43.28 301.368 41.54 304.188 40.28C307.008 39.02 310.248 38.39 313.908 38.39C317.628 38.39 320.868 39.02 323.628 40.28C326.448 41.54 328.818 43.28 330.738 45.5C332.658 47.66 334.098 50.24 335.058 53.24C336.018 56.18 336.498 59.36 336.498 62.78C336.498 66.2 336.018 69.38 335.058 72.32C334.098 75.26 332.658 77.84 330.738 80.06C328.818 82.22 326.448 83.93 323.628 85.19C320.868 86.39 317.628 86.99 313.908 86.99C310.248 86.99 307.008 86.39 304.188 85.19C301.368 83.93 298.998 82.22 297.078 80.06C295.158 77.84 293.718 75.26 292.758 72.32C291.798 69.38 291.318 66.2 291.318 62.78ZM345.518 39.47H352.718V46.85H352.898C356.078 41.21 361.118 38.39 368.018 38.39C371.078 38.39 373.628 38.81 375.668 39.65C377.708 40.49 379.358 41.66 380.618 43.16C381.878 44.66 382.748 46.46 383.228 48.56C383.768 50.6 384.038 52.88 384.038 55.4V86H376.388V54.5C376.388 51.62 375.548 49.34 373.868 47.66C372.188 45.98 369.878 45.14 366.938 45.14C364.598 45.14 362.558 45.5 360.818 46.22C359.138 46.94 357.728 47.96 356.588 49.28C355.448 50.6 354.578 52.16 353.978 53.96C353.438 55.7 353.168 57.62 353.168 59.72V86H345.518V39.47ZM400.208 71.33C400.268 73.01 400.658 74.45 401.378 75.65C402.098 76.79 403.028 77.72 404.168 78.44C405.368 79.1 406.688 79.58 408.128 79.88C409.628 80.18 411.158 80.33 412.718 80.33C413.918 80.33 415.178 80.24 416.498 80.06C417.818 79.88 419.018 79.55 420.098 79.07C421.238 78.59 422.168 77.9 422.888 77C423.608 76.04 423.968 74.84 423.968 73.4C423.968 71.42 423.218 69.92 421.718 68.9C420.218 67.88 418.328 67.07 416.048 66.47C413.828 65.81 411.398 65.24 408.758 64.76C406.118 64.22 403.658 63.5 401.378 62.6C399.158 61.64 397.298 60.32 395.798 58.64C394.298 56.96 393.548 54.62 393.548 51.62C393.548 49.28 394.058 47.27 395.078 45.59C396.158 43.91 397.508 42.56 399.128 41.54C400.808 40.46 402.668 39.68 404.708 39.2C406.808 38.66 408.878 38.39 410.918 38.39C413.558 38.39 415.988 38.63 418.208 39.11C420.428 39.53 422.378 40.31 424.058 41.45C425.798 42.53 427.178 44.03 428.198 45.95C429.218 47.81 429.818 50.15 429.998 52.97H422.348C422.228 51.47 421.838 50.24 421.178 49.28C420.518 48.26 419.678 47.45 418.658 46.85C417.638 46.25 416.498 45.83 415.238 45.59C414.038 45.29 412.808 45.14 411.548 45.14C410.408 45.14 409.238 45.23 408.038 45.41C406.898 45.59 405.848 45.92 404.888 46.4C403.928 46.82 403.148 47.42 402.548 48.2C401.948 48.92 401.648 49.88 401.648 51.08C401.648 52.4 402.098 53.51 402.998 54.41C403.958 55.25 405.158 55.97 406.598 56.57C408.038 57.11 409.658 57.59 411.458 58.01C413.258 58.37 415.058 58.76 416.858 59.18C418.778 59.6 420.638 60.11 422.438 60.71C424.298 61.31 425.918 62.12 427.298 63.14C428.738 64.1 429.878 65.33 430.718 66.83C431.618 68.33 432.068 70.19 432.068 72.41C432.068 75.23 431.468 77.57 430.268 79.43C429.128 81.29 427.598 82.79 425.678 83.93C423.818 85.07 421.688 85.85 419.288 86.27C416.948 86.75 414.608 86.99 412.268 86.99C409.688 86.99 407.228 86.72 404.888 86.18C402.548 85.64 400.478 84.77 398.678 83.57C396.878 82.31 395.438 80.69 394.358 78.71C393.278 76.67 392.678 74.21 392.558 71.33H400.208ZM448.628 31.1H440.978V21.74H448.628V31.1ZM440.978 39.47H448.628V86H440.978V39.47ZM481.449 86H473.259L455.979 39.47H464.529L477.579 78.26H477.759L490.449 39.47H498.459L481.449 86ZM537.789 58.28C537.669 56.48 537.249 54.77 536.529 53.15C535.869 51.53 534.939 50.15 533.739 49.01C532.599 47.81 531.219 46.88 529.599 46.22C528.039 45.5 526.299 45.14 524.379 45.14C522.399 45.14 520.599 45.5 518.979 46.22C517.419 46.88 516.069 47.81 514.929 49.01C513.789 50.21 512.889 51.62 512.229 53.24C511.569 54.8 511.179 56.48 511.059 58.28H537.789ZM545.169 71.24C544.149 76.46 541.899 80.39 538.419 83.03C534.939 85.67 530.559 86.99 525.279 86.99C521.559 86.99 518.319 86.39 515.559 85.19C512.859 83.99 510.579 82.31 508.719 80.15C506.859 77.99 505.449 75.41 504.489 72.41C503.589 69.41 503.079 66.14 502.959 62.6C502.959 59.06 503.499 55.82 504.579 52.88C505.659 49.94 507.159 47.39 509.079 45.23C511.059 43.07 513.369 41.39 516.009 40.19C518.709 38.99 521.649 38.39 524.829 38.39C528.969 38.39 532.389 39.26 535.089 41C537.849 42.68 540.039 44.84 541.659 47.48C543.339 50.12 544.479 53 545.079 56.12C545.739 59.24 546.009 62.21 545.889 65.03H511.059C510.999 67.07 511.239 69.02 511.779 70.88C512.319 72.68 513.189 74.3 514.389 75.74C515.589 77.12 517.119 78.23 518.979 79.07C520.839 79.91 523.029 80.33 525.549 80.33C528.789 80.33 531.429 79.58 533.469 78.08C535.569 76.58 536.949 74.3 537.609 71.24H545.169Z" fill="black"/>
</g>
<defs>
<clipPath id="clip0_208_139">
<rect width="549" height="106" fill="white"/>
</clipPath>
</defs>
</svg>
