<?xml version="1.0" encoding="UTF-8"?>
<svg id="Layer_2" data-name="Layer 2" xmlns="http://www.w3.org/2000/svg" viewBox="0 0 254.56 81.84">
  <g id="Layer_1-2" data-name="Layer 1">
    <g>
      <path d="M46.39,27.41c-9.45,1.11-8.37,12.95.54,13.34,2.32.14,5.46.3,7.79.4.97.03,2.16.05,3.16.16,8.14.64,14.04,8.8,10.96,16.71-2.21,6.16-9.23,8.78-15.2,8.23-6.64-.21-13.6-1.21-20.12-1.21-3.3.18-6.84,0-9.9,1.35-4.98,2.09-6.04,9.19-2.48,12.81,1.57,1.66,3.85,2.54,6.51,2.64h38.92c8.44,0,15.28-6.84,15.28-15.28V25.68c-9.21,5.05-25.71.96-35.45,1.73Z"/>
      <path d="M26.05,58.21c9.81-.46,19.46,1.52,29.15,1.74,3.01.07,6.29-1.36,7.3-4.31.81-2.29.25-5.1-1.64-6.79-1.51-1.51-4.15-1.77-6.31-1.75-5.35-.13-11.21.56-15.71-3.05-6.36-4.73-6.39-15.02.22-19.52,5.57-3.9,12.48-2.66,18.69-2.43,7.66.24,24.89,2.68,23.98-8.63-.9-7.58-7.34-13.46-15.17-13.46H15.28C6.84,0,0,6.84,0,15.28v51.28c0,6.99,4.69,12.87,11.09,14.69-3.87-10.42,2.98-22.59,14.96-23.03Z"/>
    </g>
    <g>
      <path d="M119.35,58.87c-2.14,0-4.09-.32-5.85-.95-1.76-.63-3.22-1.52-4.4-2.66-1.18-1.14-1.92-2.47-2.24-3.98l7.06-2.05c.03.46.22.99.55,1.61.33.62.92,1.22,1.76,1.82.84.6,2,.9,3.48.9,1.26,0,2.25-.24,2.95-.71.7-.47,1.05-1.11,1.05-1.92,0-.67-.24-1.23-.71-1.69-.47-.46-1.33-.81-2.55-1.05l-3.69-.74c-2-.39-3.64-.88-4.93-1.48-1.28-.6-2.26-1.43-2.92-2.5-.67-1.07-1-2.45-1-4.14s.46-3.11,1.37-4.37c.91-1.26,2.24-2.25,3.98-2.95,1.74-.7,3.77-1.05,6.08-1.05,3.06,0,5.52.62,7.4,1.84,1.88,1.23,3.17,2.67,3.87,4.32l-6.43,2.74c-.28-.74-.66-1.37-1.13-1.9-.47-.53-1.06-.95-1.76-1.26-.7-.32-1.47-.47-2.32-.47-1.19,0-2.11.24-2.74.71-.63.47-.95,1.06-.95,1.77s.26,1.2.79,1.61c.53.4,1.48.73,2.85.97l3.63.68c2.77.53,4.99,1.44,6.64,2.74,1.65,1.3,2.48,3.11,2.48,5.43,0,1.76-.47,3.29-1.42,4.61-.95,1.32-2.36,2.34-4.24,3.06-1.88.72-4.1,1.08-6.66,1.08Z"/>
      <path d="M135.17,49.86c.63-.35,1.25-.7,1.84-1.05.6-.35,1.16-.68,1.69-1,4.18-2.46,7.36-4.53,9.54-6.22,2.18-1.69,3.66-3.19,4.45-4.5s1.19-2.77,1.19-4.35c0-1.12-.24-2.11-.71-2.95-.47-.84-1.1-1.49-1.87-1.95-.77-.46-1.67-.69-2.69-.69-1.44,0-2.59.38-3.45,1.13-.86.76-1.47,1.7-1.82,2.82-.35,1.12-.54,2.37-.58,3.74l-7.85-1.21c.03-2.28.57-4.43,1.61-6.43,1.04-2,2.59-3.64,4.66-4.9s4.62-1.9,7.64-1.9c2.74,0,5.12.48,7.14,1.45,2.02.97,3.56,2.32,4.61,4.06,1.05,1.74,1.58,3.75,1.58,6.03,0,1.72-.26,3.31-.79,4.77-.53,1.46-1.3,2.82-2.32,4.08-1.47,1.79-3.54,3.51-6.19,5.16-2.65,1.65-6.03,3.46-10.14,5.43h19.6v6.74h-27.13v-8.27Z"/>
      <path d="M186.91,58.87c-2.04,0-3.86-.54-5.48-1.63s-2.9-2.68-3.85-4.77-1.42-4.54-1.42-7.35.47-5.3,1.42-7.38c.95-2.07,2.23-3.66,3.85-4.77s3.44-1.66,5.48-1.66,3.85.48,5.24,1.45c1.39.97,2.47,2.13,3.24,3.5v-15.01h4.43v36.88h-4.37v-4.21c-.74,1.37-1.82,2.54-3.24,3.5-1.42.96-3.19,1.45-5.29,1.45ZM188.12,55.02c1.48,0,2.77-.36,3.87-1.08,1.11-.72,1.98-1.83,2.63-3.32.65-1.49.97-3.33.97-5.51s-.33-4.01-.97-5.5c-.65-1.49-1.53-2.61-2.63-3.35-1.11-.74-2.4-1.11-3.87-1.11s-2.7.34-3.79,1.03-1.95,1.76-2.58,3.24c-.63,1.47-.95,3.37-.95,5.69s.32,4.27.95,5.74c.63,1.48,1.49,2.54,2.58,3.19,1.09.65,2.35.97,3.79.97Z"/>
      <path d="M217.56,58.87c-2.39,0-4.48-.54-6.27-1.61s-3.18-2.64-4.16-4.71c-.98-2.07-1.47-4.57-1.47-7.48s.51-5.2,1.53-7.27c1.02-2.07,2.42-3.67,4.21-4.79,1.79-1.12,3.77-1.69,5.95-1.69,2.53,0,4.7.64,6.51,1.92,1.81,1.28,3.14,3.06,4,5.32.86,2.26,1.15,4.79.87,7.56h-18.6c.07,2.14.46,3.88,1.16,5.22.7,1.33,1.61,2.29,2.71,2.87s2.34.87,3.71.87c1.9,0,3.42-.53,4.56-1.58,1.14-1.05,1.98-2.25,2.5-3.58l4.11,1.48c-.6,1.58-1.43,2.92-2.5,4.03-1.07,1.11-2.35,1.96-3.85,2.55-1.49.6-3.15.9-4.98.9ZM224.2,42.53c0-1.62-.32-2.99-.95-4.14-.63-1.14-1.46-2.01-2.48-2.61-1.02-.6-2.16-.9-3.42-.9-1.9,0-3.5.69-4.82,2.08-1.32,1.39-2.08,3.24-2.29,5.56h13.96Z"/>
      <path d="M240.17,58.13l-9.17-26.08h4.74l4.74,14.38c.74,2.11,1.58,4.65,2.53,7.64.35-.98,1.18-3.53,2.48-7.64l4.53-14.38h4.53l-8.8,26.08h-5.58Z"/>
      <path d="M172.04,51.39h-4.81v6.74h6.74v-1.47c-.82-1.36-1.48-3.17-1.94-5.27Z"/>
    </g>
  </g>
</svg>
