<svg viewBox="0 0 145 33" fill="none" xmlns="http://www.w3.org/2000/svg">
<g transform="translate(0, 0) scale(0.0733)">
<path d="M226.328 256.377C252.519 256.377 269.875 267.241 281.797 276.624C284.614 278.841 287.25 281.075 289.324 282.81C291.551 284.674 293.144 285.974 294.533 286.982C295.135 287.42 295.597 287.723 295.928 287.927H350.093V329.754H294.305C283.401 329.754 275.046 324.501 270.004 320.839C267.321 318.89 264.73 316.739 262.538 314.905C260.194 312.943 258.176 311.234 255.982 309.507C247.862 303.115 239.459 298.204 226.328 298.204H225.796C212.665 298.204 204.263 303.115 196.142 309.507C193.948 311.234 191.931 312.944 189.586 314.905C187.394 316.739 184.803 318.89 182.119 320.839C177.077 324.501 168.723 329.754 157.819 329.754H100.482V287.927H156.196C156.528 287.723 156.989 287.42 157.591 286.982C158.98 285.974 160.573 284.674 162.8 282.81C164.874 281.075 167.51 278.841 170.326 276.624C182.248 267.241 199.604 256.377 225.796 256.377H226.328Z" fill="#4A9E3A"/>
<path d="M316.102 121.086C335.072 121.086 350.449 136.484 350.45 155.477V245.735H308.677V162.912H142.045V245.735H100.272V155.477C100.273 136.484 115.65 121.086 134.62 121.086H316.102Z" fill="#4A9E3A"/>
</g>
<path d="M53.6722 10.4179V12.4804H50.2713V23.1687H47.7138V12.4804H44.313V10.4179H53.6722Z" fill="#333333"/>
<path d="M64.4165 18.8789H57.019C57.0831 19.6122 57.3398 20.1806 57.789 20.5931C58.2381 21.0056 58.7973 21.2164 59.4481 21.2164C60.4015 21.2164 61.0706 20.8039 61.474 19.9881H64.2331C63.9398 20.9597 63.3806 21.7664 62.5556 22.3897C61.7306 23.0131 60.7131 23.3339 59.5031 23.3339C58.5315 23.3339 57.6515 23.1139 56.8815 22.6831C56.1115 22.2522 55.5065 21.6381 55.0756 20.8497C54.6448 20.0614 54.4248 19.1447 54.4248 18.1089C54.4248 17.0639 54.6356 16.1381 55.0665 15.3497C55.4973 14.5614 56.0931 13.9472 56.854 13.5256C57.624 13.0947 58.504 12.8839 59.5031 12.8839C60.4656 12.8839 61.3273 13.0947 62.0881 13.5072C62.849 13.9197 63.4448 14.5064 63.8573 15.2672C64.2698 16.0281 64.4898 16.8989 64.4898 17.8889C64.4898 18.2556 64.4715 18.5856 64.4165 18.8789ZM61.8406 17.1647C61.8315 16.5047 61.5931 15.9822 61.1256 15.5881C60.6581 15.1939 60.099 14.9922 59.4298 14.9922C58.7973 14.9922 58.2656 15.1847 57.8348 15.5697C57.404 15.9547 57.1381 16.4864 57.0373 17.1647H61.8406Z" fill="#333333"/>
<path d="M74.4361 14.0488C75.1786 14.8097 75.5545 15.873 75.5545 17.2388V23.1788H72.997V17.5872C72.997 16.7805 72.7953 16.1663 72.392 15.7355C71.9886 15.3047 71.4386 15.0847 70.7511 15.0847C70.0453 15.0847 69.4861 15.3047 69.0828 15.7355C68.6703 16.1663 68.4686 16.7897 68.4686 17.5872V23.1788H65.9111V13.0588H68.4686V14.3238C68.8078 13.8838 69.2478 13.5447 69.7795 13.288C70.3111 13.0405 70.8886 12.9122 71.5211 12.9122C72.722 12.903 73.6936 13.288 74.4361 14.0488Z" fill="#333333"/>
<path d="M79.1654 22.8939C78.5054 22.5914 77.9829 22.1881 77.6071 21.6747C77.2221 21.1614 77.0113 20.5931 76.9746 19.9789H79.5504C79.5963 20.3731 79.7888 20.6939 80.1279 20.9506C80.4671 21.2072 80.8796 21.3356 81.3838 21.3356C81.8696 21.3356 82.2546 21.2347 82.5296 21.0422C82.8046 20.8497 82.9421 20.6022 82.9421 20.2906C82.9421 19.9606 82.7771 19.7131 82.4379 19.5481C82.0988 19.3831 81.5671 19.1997 80.8429 19.0072C80.0913 18.8239 79.4679 18.6314 78.9913 18.4389C78.5054 18.2464 78.0929 17.9439 77.7446 17.5406C77.3963 17.1372 77.2221 16.5964 77.2221 15.9181C77.2221 15.3589 77.3871 14.8456 77.7079 14.3872C78.0288 13.9289 78.4963 13.5622 79.1013 13.2872C79.7063 13.0214 80.4121 12.8839 81.2279 12.8839C82.4379 12.8839 83.4004 13.1864 84.1154 13.7914C84.8304 14.3964 85.2338 15.2031 85.3071 16.2297H82.8596C82.8229 15.8264 82.6579 15.5056 82.3554 15.2672C82.0529 15.0289 81.6588 14.9097 81.1546 14.9097C80.6871 14.9097 80.3388 14.9922 80.0821 15.1664C79.8346 15.3406 79.7063 15.5789 79.7063 15.8814C79.7063 16.2206 79.8804 16.4772 80.2196 16.6606C80.5588 16.8347 81.0904 17.0181 81.8054 17.2014C82.5388 17.3847 83.1438 17.5772 83.6113 17.7697C84.0879 17.9622 84.5004 18.2647 84.8488 18.6772C85.1971 19.0897 85.3713 19.6214 85.3896 20.2906C85.3896 20.8772 85.2246 21.3997 84.9038 21.8581C84.5829 22.3256 84.1154 22.6831 83.5104 22.9489C82.9054 23.2147 82.1996 23.3431 81.4021 23.3431C80.5679 23.3339 79.8254 23.1872 79.1654 22.8939Z" fill="#333333"/>
<path d="M88.8922 22.6918C88.113 22.261 87.4988 21.6468 87.0588 20.8585C86.6097 20.0702 86.3896 19.1535 86.3896 18.1177C86.3896 17.0819 86.6188 16.1652 87.0771 15.3769C87.5355 14.5885 88.1588 13.9744 88.9472 13.5435C89.7355 13.1127 90.6247 12.8927 91.5963 12.8927C92.568 12.8927 93.4572 13.1127 94.2455 13.5435C95.0338 13.9744 95.6571 14.5885 96.1155 15.3769C96.5738 16.1652 96.803 17.0819 96.803 18.1177C96.803 19.1535 96.5647 20.0702 96.0972 20.8585C95.6297 21.6468 94.9972 22.261 94.1997 22.6918C93.4022 23.1227 92.513 23.3427 91.523 23.3427C90.5422 23.3335 89.6713 23.1227 88.8922 22.6918ZM92.8247 20.7669C93.228 20.5377 93.558 20.2077 93.8055 19.7494C94.053 19.3002 94.1722 18.7502 94.1722 18.1085C94.1722 17.146 93.9155 16.4035 93.4113 15.8902C92.9072 15.3769 92.2838 15.111 91.5596 15.111C90.8355 15.111 90.2121 15.3677 89.7263 15.8902C89.2313 16.4035 88.9838 17.146 88.9838 18.1085C88.9838 19.071 89.2222 19.8135 89.708 20.3269C90.1847 20.8402 90.7988 21.106 91.523 21.106C91.9813 21.106 92.4213 20.996 92.8247 20.7669Z" fill="#333333"/>
<path d="M102.074 13.3598C102.606 13.0573 103.211 12.9015 103.889 12.9015V15.5873H103.211C102.404 15.5873 101.799 15.7798 101.396 16.1556C100.983 16.5315 100.781 17.1915 100.781 18.1265V23.1681H98.2239V13.0481H100.781V14.6156C101.111 14.084 101.542 13.6623 102.074 13.3598Z" fill="#333333"/>
<path d="M107.711 9.64806V23.1689H105.153V9.64806H107.711Z" fill="#333333"/>
<path d="M109.727 15.3497C110.14 14.5614 110.69 13.9472 111.387 13.5256C112.083 13.0947 112.872 12.8839 113.733 12.8839C114.485 12.8839 115.145 13.0397 115.713 13.3422C116.282 13.6447 116.731 14.0297 117.079 14.4972V13.0581H119.655V23.1781H117.079V21.7022C116.749 22.1789 116.3 22.5731 115.713 22.8847C115.127 23.1964 114.467 23.3522 113.715 23.3522C112.862 23.3522 112.083 23.1322 111.387 22.6922C110.69 22.2522 110.131 21.6381 109.727 20.8406C109.315 20.0431 109.113 19.1264 109.113 18.0906C109.122 17.0547 109.324 16.1472 109.727 15.3497ZM116.722 16.5139C116.474 16.0739 116.153 15.7256 115.732 15.4872C115.319 15.2489 114.87 15.1297 114.393 15.1297C113.917 15.1297 113.477 15.2489 113.073 15.4781C112.67 15.7072 112.349 16.0464 112.092 16.4956C111.845 16.9447 111.717 17.4672 111.717 18.0722C111.717 18.6772 111.845 19.2181 112.092 19.6672C112.34 20.1256 112.67 20.4739 113.082 20.7214C113.495 20.9689 113.926 21.0881 114.393 21.0881C114.87 21.0881 115.31 20.9689 115.732 20.7306C116.144 20.4922 116.474 20.1531 116.722 19.7039C116.969 19.2547 117.088 18.7231 117.088 18.1089C117.088 17.4947 116.96 16.9539 116.722 16.5139Z" fill="#333333"/>
<path d="M127.704 23.1689L124.266 18.8606V23.1689H121.709V9.64806H124.266V17.3389L127.667 13.0489H130.995L126.54 18.1272L131.031 23.1689H127.704Z" fill="#333333"/>
<path d="M141.26 18.8789H133.863C133.927 19.6122 134.184 20.1806 134.633 20.5931C135.082 21.0056 135.641 21.2164 136.292 21.2164C137.245 21.2164 137.914 20.8039 138.318 19.9881H141.077C140.784 20.9597 140.224 21.7664 139.399 22.3897C138.574 23.0131 137.557 23.3339 136.347 23.3339C135.375 23.3339 134.495 23.1139 133.725 22.6831C132.955 22.2522 132.35 21.6381 131.919 20.8497C131.489 20.0614 131.269 19.1447 131.269 18.1089C131.269 17.0639 131.479 16.1381 131.91 15.3497C132.341 14.5614 132.937 13.9472 133.698 13.5256C134.468 13.0947 135.348 12.8839 136.347 12.8839C137.309 12.8839 138.171 13.0947 138.932 13.5072C139.693 13.9197 140.289 14.5064 140.701 15.2672C141.114 16.0281 141.334 16.8989 141.334 17.8889C141.334 18.2556 141.306 18.5856 141.26 18.8789ZM138.684 17.1647C138.675 16.5047 138.437 15.9822 137.969 15.5881C137.502 15.1939 136.943 14.9922 136.274 14.9922C135.641 14.9922 135.109 15.1847 134.679 15.5697C134.248 15.9547 133.982 16.4864 133.881 17.1647H138.684Z" fill="#333333"/>
</svg>
